<svg width="951" height="824" viewBox="0 0 951 824" fill="none" xmlns="http://www.w3.org/2000/svg">
<mask id="mask0" mask-type="alpha" maskUnits="userSpaceOnUse" x="0" y="0" width="951" height="824">
<rect width="951" height="824" fill="white"/>
</mask>
<g mask="url(#mask0)">
<path d="M512.807 42.8001L666.679 617.059L92.4206 463.186L512.807 42.8001Z" fill="white"/>
<path d="M707.197 0.943279L901.851 751.531L163.328 553.645L707.197 0.943279Z" fill="white"/>
<path fill-rule="evenodd" clip-rule="evenodd" d="M453.929 -0.306519L2.60769 451.015L0.158203 453.464L3.50427 454.361L676.564 634.706L679.91 635.603L679.013 632.257L509.518 -0.306519H506.413L675.667 631.36L5.95376 451.911L458.172 -0.306519H453.929Z" fill="#E57281"/>
<path fill-rule="evenodd" clip-rule="evenodd" d="M790.723 161.454L794.812 157.285L796.269 162.94L951.001 763.613V783.656L792.18 167.109L319.42 649.114L951.001 818.346V823.522L315.4 653.213L309.854 651.727L313.874 647.628L790.723 161.454Z" fill="#FFCF2D"/>
<path d="M914.729 646.51H178.039L310.282 568.418H784.511L914.729 646.51Z" fill="#D0F0E4"/>
<path d="M600.418 264.741H467.881V188.104C467.881 182.915 472.087 178.708 477.276 178.708H591.023C596.212 178.708 600.418 182.915 600.418 188.104V264.741V264.741Z" fill="white"/>
<path fill-rule="evenodd" clip-rule="evenodd" d="M477.276 179.708C472.639 179.708 468.881 183.467 468.881 188.104V263.741H599.418V188.104C599.418 183.467 595.66 179.708 591.023 179.708H477.276ZM600.418 264.741H601.418V188.104C601.418 182.362 596.764 177.708 591.023 177.708H477.276C471.535 177.708 466.881 182.362 466.881 188.104V265.741H600.418V264.741Z" fill="#66B0F0"/>
<path d="M590.412 259.748H478.434C475.486 259.748 473.088 257.35 473.088 254.402V188.713C473.088 185.764 475.486 183.366 478.434 183.366H590.412C593.36 183.366 595.758 185.764 595.758 188.713V254.421C595.758 257.37 593.36 259.748 590.412 259.748Z" fill="#66B0F0"/>
<path d="M623.65 282.725C628.721 286.027 627.542 292.494 621.547 292.494H440.991C435.94 292.494 434.21 285.674 439.163 282.548L623.65 282.725Z" fill="#66B0F0"/>
<path fill-rule="evenodd" clip-rule="evenodd" d="M438.874 281.548L623.947 281.726L624.196 281.887C627.01 283.72 628.234 286.544 627.728 289.046C627.21 291.609 624.949 293.494 621.547 293.494H440.991C437.938 293.494 435.878 291.403 435.347 288.901C434.816 286.395 435.799 283.489 438.63 281.703L438.874 281.548ZM439.463 283.549C437.528 284.889 436.959 286.863 437.304 288.486C437.662 290.175 438.993 291.494 440.991 291.494H621.547C624.14 291.494 625.466 290.146 625.768 288.65C626.071 287.15 625.412 285.181 623.343 283.725L439.463 283.549Z" fill="#66B0F0"/>
<path d="M621.547 287.993H440.991C437.768 287.993 436.49 284.199 439.163 282.548L467.919 264.74H600.044L623.63 282.725C625.989 284.514 624.613 287.993 621.547 287.993Z" fill="white"/>
<path fill-rule="evenodd" clip-rule="evenodd" d="M467.634 263.74H600.381L624.234 281.928C625.786 283.105 626.143 284.904 625.553 286.398C624.968 287.876 623.486 288.993 621.547 288.993H440.991C438.951 288.993 437.443 287.771 436.918 286.209C436.387 284.629 436.891 282.777 438.637 281.698C438.637 281.698 438.637 281.698 438.637 281.698L467.634 263.74ZM468.203 265.74L439.688 283.399C438.761 283.972 438.568 284.841 438.813 285.571C439.064 286.318 439.808 286.993 440.991 286.993H621.547C622.673 286.993 623.413 286.371 623.693 285.662C623.967 284.969 623.833 284.134 623.026 283.522L623.024 283.521L599.706 265.74H468.203Z" fill="#66B0F0"/>
<path d="M600.711 282.627H461.825C459.349 282.627 458.366 279.698 460.41 278.441L480.38 264.741H584.161L602.304 278.578C604.132 279.954 603.07 282.627 600.711 282.627Z" fill="white"/>
<path fill-rule="evenodd" clip-rule="evenodd" d="M480.07 263.741H584.499L602.904 277.779C602.905 277.78 602.906 277.78 602.907 277.781C604.191 278.749 604.498 280.243 604.007 281.486C603.523 282.713 602.296 283.627 600.711 283.627H461.825C460.155 283.627 458.911 282.619 458.474 281.325C458.036 280.022 458.444 278.49 459.863 277.603L480.07 263.741ZM480.69 265.741L460.955 279.279L460.934 279.292C460.327 279.665 460.212 280.217 460.37 280.686C460.533 281.171 461.018 281.627 461.825 281.627H600.711C601.485 281.627 601.968 281.205 602.147 280.751C602.319 280.315 602.244 279.785 601.702 279.377L601.697 279.373L583.823 265.741H480.69Z" fill="#66B0F0"/>
<path fill-rule="evenodd" clip-rule="evenodd" d="M592.638 283.34L574.477 265.453L575.88 264.028L594.042 281.915L592.638 283.34Z" fill="#66B0F0"/>
<path fill-rule="evenodd" clip-rule="evenodd" d="M580.802 283.294L564.803 265.407L566.293 264.074L582.293 281.96L580.802 283.294Z" fill="#66B0F0"/>
<path fill-rule="evenodd" clip-rule="evenodd" d="M569.633 283.24L555.756 265.354L557.336 264.128L571.213 282.014L569.633 283.24Z" fill="#66B0F0"/>
<path fill-rule="evenodd" clip-rule="evenodd" d="M557.379 283.176L545.645 265.289L547.317 264.192L559.051 282.079L557.379 283.176Z" fill="#66B0F0"/>
<path fill-rule="evenodd" clip-rule="evenodd" d="M542.896 282.932L537.176 265.045L539.081 264.436L544.801 282.322L542.896 282.932Z" fill="#66B0F0"/>
<path fill-rule="evenodd" clip-rule="evenodd" d="M469.949 281.915L488.111 264.028L489.514 265.453L471.353 283.34L469.949 281.915Z" fill="#66B0F0"/>
<path fill-rule="evenodd" clip-rule="evenodd" d="M481.699 281.961L497.699 264.074L499.19 265.407L483.19 283.294L481.699 281.961Z" fill="#66B0F0"/>
<path fill-rule="evenodd" clip-rule="evenodd" d="M492.779 282.014L506.656 264.128L508.236 265.354L494.359 283.24L492.779 282.014Z" fill="#66B0F0"/>
<path fill-rule="evenodd" clip-rule="evenodd" d="M504.939 282.079L516.674 264.192L518.346 265.289L506.612 283.176L504.939 282.079Z" fill="#66B0F0"/>
<path fill-rule="evenodd" clip-rule="evenodd" d="M519.191 282.323L524.911 264.436L526.816 265.045L521.096 282.932L519.191 282.323Z" fill="#66B0F0"/>
<path fill-rule="evenodd" clip-rule="evenodd" d="M532.523 264.74V282.843H530.523V264.74H532.523Z" fill="#66B0F0"/>
<path fill-rule="evenodd" clip-rule="evenodd" d="M592.947 272.423H470.65V270.423H592.947V272.423Z" fill="#66B0F0"/>
<path d="M581.096 259.748H481.658L483.447 247.07C484.548 239.266 490.149 232.859 497.717 230.697L521.952 225.665H540.802L565.037 230.697C572.624 232.839 578.226 239.266 579.307 247.07L581.096 259.748Z" fill="#FFCF2D"/>
<path d="M538.089 240.151L530.915 232.898C530.758 232.741 530.758 232.485 530.915 232.347C531.072 232.19 531.328 232.19 531.465 232.347L538.05 239.011L548.271 227.434C548.408 227.276 548.664 227.257 548.821 227.394C548.978 227.532 548.998 227.787 548.86 227.945L538.089 240.151Z" fill="white"/>
<path d="M524.763 240.151L513.991 227.945C513.854 227.788 513.854 227.532 514.031 227.395C514.188 227.257 514.443 227.257 514.581 227.434L524.802 239.011L531.386 232.348C531.544 232.19 531.78 232.19 531.937 232.348C532.094 232.505 532.094 232.741 531.937 232.898L524.763 240.151Z" fill="white"/>
<path d="M531.544 244.888C530.601 244.888 529.834 244.121 529.834 243.178C529.834 242.234 530.601 241.468 531.544 241.468C532.487 241.468 533.254 242.234 533.254 243.178C533.254 244.121 532.487 244.888 531.544 244.888ZM531.544 242.254C531.033 242.254 530.62 242.667 530.62 243.178C530.62 243.689 531.033 244.101 531.544 244.101C532.055 244.101 532.468 243.689 532.468 243.178C532.468 242.667 532.055 242.254 531.544 242.254Z" fill="white"/>
<path d="M531.544 254.519C530.601 254.519 529.834 253.752 529.834 252.809C529.834 251.865 530.601 251.099 531.544 251.099C532.487 251.099 533.254 251.865 533.254 252.809C533.254 253.752 532.487 254.519 531.544 254.519ZM531.544 251.885C531.033 251.885 530.62 252.298 530.62 252.809C530.62 253.32 531.033 253.733 531.544 253.733C532.055 253.733 532.468 253.32 532.468 252.809C532.468 252.298 532.055 251.885 531.544 251.885Z" fill="white"/>
<path d="M521.833 259.334H489.716L481.146 233.9L513.264 224.701L521.833 259.334Z" fill="white"/>
<path fill-rule="evenodd" clip-rule="evenodd" d="M513.625 224.078L522.473 259.834H489.357L480.506 233.564L513.625 224.078ZM481.788 234.237L490.076 258.834H521.195L512.903 225.325L481.788 234.237Z" fill="#66B0F0"/>
<path d="M491.387 237.202H490.778C489.225 237.202 487.967 235.944 487.967 234.392V225.566C487.967 224.937 488.478 224.426 489.107 224.426H491.76C492.389 224.426 492.9 224.937 492.9 225.566V235.669C492.92 236.514 492.232 237.202 491.387 237.202Z" fill="white"/>
<path fill-rule="evenodd" clip-rule="evenodd" d="M489.107 224.926C488.754 224.926 488.467 225.213 488.467 225.566V234.392C488.467 235.668 489.501 236.702 490.778 236.702H491.387C491.958 236.702 492.413 236.239 492.4 235.681L492.4 235.669H492.4V225.566C492.4 225.213 492.113 224.926 491.76 224.926H489.107ZM487.467 225.566C487.467 224.661 488.202 223.926 489.107 223.926H491.76C492.665 223.926 493.4 224.661 493.4 225.566V235.664C493.423 236.794 492.504 237.702 491.387 237.702H490.778C488.949 237.702 487.467 236.221 487.467 234.392V225.566Z" fill="#66B0F0"/>
<path d="M504.32 237.202H504.93C506.482 237.202 507.74 235.944 507.74 234.391V225.566C507.74 224.937 507.229 224.426 506.6 224.426H503.927C503.298 224.426 502.787 224.937 502.787 225.566V235.669C502.787 236.514 503.475 237.202 504.32 237.202Z" fill="white"/>
<path d="M496.32 238.224H494.905C493.804 238.224 492.92 237.339 492.92 236.239V225.585C492.92 224.956 493.431 224.445 494.06 224.445H496.713C497.342 224.445 497.853 224.956 497.853 225.585V236.691C497.853 237.536 497.166 238.224 496.32 238.224Z" fill="white"/>
<path d="M501.274 238.617H500.094C498.856 238.617 497.854 237.615 497.854 236.376V225.566C497.854 224.937 498.365 224.426 498.993 224.426H501.647C502.276 224.426 502.787 224.937 502.787 225.566V237.084C502.787 237.929 502.099 238.617 501.274 238.617Z" fill="white"/>
<path fill-rule="evenodd" clip-rule="evenodd" d="M502.287 225.566C502.287 224.661 503.022 223.926 503.927 223.926H506.6C507.505 223.926 508.24 224.661 508.24 225.566V234.391C508.24 236.22 506.759 237.702 504.93 237.702H504.32C503.199 237.702 502.287 236.79 502.287 235.669V225.566ZM503.927 224.926C503.574 224.926 503.287 225.213 503.287 225.566V235.669C503.287 236.238 503.751 236.702 504.32 236.702H504.93C506.206 236.702 507.24 235.668 507.24 234.391V225.566C507.24 225.213 506.953 224.926 506.6 224.926H503.927Z" fill="#66B0F0"/>
<path fill-rule="evenodd" clip-rule="evenodd" d="M494.06 224.945C493.707 224.945 493.42 225.233 493.42 225.585V236.239C493.42 237.063 494.081 237.724 494.905 237.724H496.32C496.889 237.724 497.353 237.26 497.353 236.691V225.585C497.353 225.233 497.066 224.945 496.713 224.945H494.06ZM492.42 225.585C492.42 224.68 493.155 223.945 494.06 223.945H496.713C497.619 223.945 498.353 224.68 498.353 225.585V236.691C498.353 237.812 497.442 238.724 496.32 238.724H494.905C493.528 238.724 492.42 237.616 492.42 236.239V225.585Z" fill="#66B0F0"/>
<path fill-rule="evenodd" clip-rule="evenodd" d="M498.993 224.926C498.641 224.926 498.354 225.213 498.354 225.566V236.376C498.354 237.339 499.132 238.117 500.094 238.117H501.274C501.819 238.117 502.287 237.657 502.287 237.084V225.566C502.287 225.213 502 224.926 501.647 224.926H498.993ZM497.354 225.566C497.354 224.661 498.088 223.926 498.993 223.926H501.647C502.552 223.926 503.287 224.661 503.287 225.566V237.084C503.287 238.201 502.379 239.117 501.274 239.117H500.094C498.58 239.117 497.354 237.891 497.354 236.376V225.566Z" fill="#66B0F0"/>
<path d="M540.82 214.107V228.456C540.82 230.933 536.595 232.957 531.386 232.957C526.177 232.957 521.951 230.933 521.951 228.456V214.107H540.82Z" fill="white"/>
<path d="M540.82 214.107C540.82 224.938 533.882 228.161 527.219 227.591C527.199 227.591 527.179 227.591 527.16 227.591C524.211 227.316 521.971 224.8 521.971 221.852V214.127H540.82V214.107Z" fill="#66B0F0"/>
<path d="M545.204 210.412V211.139C545.204 212.751 543.907 214.048 542.295 214.048H540.801L540.821 214.382C540.821 219.021 537.067 222.775 532.428 222.775H530.364C525.725 222.775 521.971 219.021 521.971 214.382L521.991 214.048H520.497C518.885 214.048 517.588 212.751 517.588 211.139V210.412C517.588 208.8 518.885 207.503 520.497 207.503H522.403L522.62 203.945C522.62 203.395 522.698 202.864 522.856 202.373C528.477 203.768 535.062 200.152 536.831 199.071C538.796 199.818 540.192 201.705 540.192 203.926L540.408 207.483H542.315C543.907 207.503 545.204 208.8 545.204 210.412Z" fill="white"/>
<path d="M542.433 207.503H540.389L540.173 203.946C540.173 201.724 538.778 199.838 536.812 199.091C535.043 200.152 528.458 203.769 522.837 202.393C522.68 202.884 522.601 203.415 522.601 203.965L522.385 207.523H521.107C521.107 207.523 518.493 194.865 521.068 192.545C522.974 190.835 540.429 194.57 542.355 197.223C543.436 198.737 542.433 207.503 542.433 207.503Z" fill="#E57281"/>
<path d="M537.52 206.736C537.461 206.736 537.383 206.717 537.324 206.658C537.304 206.638 536.027 205.596 533.982 205.596C533.825 205.596 533.688 205.459 533.688 205.301C533.688 205.144 533.825 205.006 533.982 205.006C536.243 205.006 537.638 206.146 537.697 206.205C537.815 206.304 537.835 206.5 537.737 206.618C537.697 206.697 537.599 206.736 537.52 206.736Z" fill="#66B0F0"/>
<path d="M530.05 212.83C530.011 212.83 529.971 212.83 529.952 212.81C529.794 212.751 529.716 212.574 529.775 212.436C530.325 210.982 530.187 209.154 529.421 207.542C528.969 206.559 528.32 205.852 527.75 205.655C526.492 205.223 524.723 205.832 524.704 205.832C524.546 205.891 524.389 205.813 524.33 205.655C524.271 205.498 524.35 205.341 524.507 205.282C524.586 205.262 526.473 204.614 527.927 205.105C528.654 205.36 529.401 206.166 529.932 207.306C530.757 209.056 530.895 211.061 530.305 212.672C530.286 212.751 530.168 212.83 530.05 212.83Z" fill="#66B0F0"/>
<path d="M533.924 215.955C533.943 216.112 533.806 216.25 533.648 216.269H533.629C533.472 216.269 533.354 216.151 533.334 215.994C533.314 215.798 533.275 215.601 533.216 215.424C532.371 215.837 531.604 215.974 530.975 215.974C529.737 215.974 528.99 215.463 528.951 215.424C528.813 215.326 528.794 215.149 528.872 215.011C528.97 214.874 529.147 214.854 529.285 214.933C529.324 214.952 529.953 215.385 530.975 215.385C531.526 215.385 532.194 215.267 532.961 214.893C532.843 214.697 532.725 214.579 532.725 214.579C532.607 214.461 532.626 214.264 532.744 214.166C532.862 214.068 533.059 214.068 533.157 214.186C533.196 214.245 533.865 214.992 533.924 215.955Z" fill="#66B0F0"/>
<path d="M534.984 210.338C535.255 210.321 535.447 209.868 535.413 209.326C535.379 208.784 535.132 208.359 534.862 208.376C534.591 208.393 534.398 208.846 534.432 209.387C534.466 209.929 534.713 210.355 534.984 210.338Z" fill="#66B0F0"/>
<path d="M526.96 210.259C527.209 210.243 527.386 209.827 527.355 209.328C527.324 208.83 527.097 208.438 526.848 208.454C526.599 208.469 526.422 208.886 526.453 209.384C526.484 209.883 526.711 210.274 526.96 210.259Z" fill="#66B0F0"/>
<path d="M521.461 211.355C521.304 211.355 521.166 211.218 521.166 211.06C521.166 210.196 520.458 209.508 519.613 209.508C519.456 209.508 519.318 209.37 519.318 209.213C519.318 209.056 519.456 208.918 519.613 208.918C520.793 208.918 521.756 209.881 521.756 211.06C521.756 211.237 521.618 211.355 521.461 211.355Z" fill="#66B0F0"/>
<path d="M541.234 211.355C541.077 211.355 540.939 211.218 540.939 211.06C540.939 209.881 541.903 208.918 543.082 208.918C543.239 208.918 543.377 209.056 543.377 209.213C543.377 209.37 543.239 209.508 543.082 209.508C542.217 209.508 541.529 210.215 541.529 211.06C541.529 211.237 541.411 211.355 541.234 211.355Z" fill="#66B0F0"/>
<path fill-rule="evenodd" clip-rule="evenodd" d="M275.711 368.047C277.466 361.979 283.007 357.811 289.31 357.811H800.256C806.493 357.811 812.013 361.891 813.812 367.858L813.813 367.859M277.632 368.602L197.3 646.787L195.379 646.232L275.711 368.047L275.711 368.047M277.632 368.602C279.14 363.388 283.899 359.811 289.31 359.811H800.256C805.616 359.811 810.355 363.318 811.898 368.436L811.898 368.437L896.083 646.799L897.997 646.22L813.813 367.859" fill="#66B0F0"/>
<path fill-rule="evenodd" clip-rule="evenodd" d="M652.761 265.74H429.277V263.74H652.761V265.74Z" fill="#66B0F0"/>
<path d="M506.836 307.039H559.631V352.384H506.836C506.836 352.384 506.836 305.329 506.836 307.039Z" fill="#FFCF2D"/>
<path d="M704.255 517.727L679.705 456.598H719.232L704.255 517.727Z" fill="#9A3B82"/>
<path d="M636.895 375.008C642.162 365.042 652.521 358.812 663.783 358.812H694.19L714.848 375.008H636.895Z" fill="#9A3B82"/>
<path d="M752.176 446.573H675.578L704.413 516.567C702.408 513.304 690.398 516.704 677.681 524.508C665.121 532.213 656.63 541.49 658.36 544.871L596.209 436.726C580.091 409.444 599.747 375.008 631.432 375.008H803.083L803.457 376.187C814.66 410.977 788.715 446.573 752.176 446.573Z" fill="#3FB1B5"/>
<path d="M806.052 395.076C805.777 401.464 804.362 407.636 801.964 413.356L711.941 375.028H801.295L803.379 381.121C804.833 384.777 805.639 389.907 806.052 395.076Z" fill="#E6E6E6"/>
<path d="M704.434 516.567C706.439 519.83 697.672 528.734 684.975 536.537C672.258 544.34 660.445 548.252 658.44 544.989C656.435 541.726 664.985 532.508 677.702 524.704C690.4 516.901 702.409 513.304 704.434 516.567Z" fill="#66B0F0"/>
<path fill-rule="evenodd" clip-rule="evenodd" d="M761.816 379.592C762.357 379.478 762.887 379.824 763.001 380.364C766.159 395.334 754.737 409.422 739.439 409.422H630.567C622.351 409.422 617.188 418.267 621.198 425.425C621.198 425.426 621.198 425.426 621.198 425.427L677.097 524.251C677.369 524.732 677.2 525.342 676.719 525.614C676.238 525.886 675.628 525.717 675.356 525.236L619.456 426.408L619.454 426.405C614.698 417.917 620.817 407.422 630.567 407.422H739.439C753.466 407.422 763.94 394.504 761.044 380.777C760.93 380.236 761.276 379.706 761.816 379.592Z" fill="white"/>
<path fill-rule="evenodd" clip-rule="evenodd" d="M696.136 516.513C691.649 517.63 685.619 520.384 678.204 524.703C671.659 528.52 666.263 532.983 662.769 536.865C661.017 538.81 659.776 540.574 659.095 542.006C658.755 542.722 658.574 543.316 658.519 543.783C658.466 544.247 658.543 544.521 658.642 544.682C658.931 545.152 658.784 545.768 658.313 546.057C657.843 546.346 657.227 546.199 656.938 545.729C656.535 545.074 656.445 544.31 656.533 543.552C656.621 542.796 656.891 541.984 657.289 541.147C658.084 539.475 659.461 537.549 661.282 535.526C664.932 531.473 670.495 526.884 677.197 522.976L677.197 522.976C684.662 518.627 690.887 515.759 695.653 514.572C698.034 513.979 700.125 513.786 701.857 514.09C703.621 514.399 705.034 515.232 705.929 516.667C706.222 517.135 706.079 517.752 705.61 518.044C705.142 518.337 704.525 518.194 704.232 517.725C703.692 516.86 702.826 516.29 701.512 516.06C700.165 515.824 698.381 515.954 696.136 516.513Z" fill="white"/>
<path fill-rule="evenodd" clip-rule="evenodd" d="M668.608 429.632C669.117 429.419 669.703 429.659 669.917 430.168L706.437 517.242C706.65 517.751 706.41 518.337 705.901 518.551C705.392 518.764 704.806 518.525 704.592 518.015L668.072 430.941C667.859 430.432 668.098 429.846 668.608 429.632Z" fill="white"/>
<path fill-rule="evenodd" clip-rule="evenodd" d="M718.388 375.359H629.289V373.359H718.388V375.359Z" fill="white"/>
<path d="M679.685 549.49L674.378 542.257L667.066 532.311C670.054 529.795 673.651 527.181 677.68 524.704C685.7 519.791 693.424 516.528 698.555 515.624L702.112 522.719L706.554 531.564C703.409 542.748 679.685 549.49 679.685 549.49Z" fill="#E57281"/>
<path d="M702.134 522.719C698.832 526.748 692.62 531.839 684.974 536.537C681.299 538.797 677.702 540.724 674.4 542.257L667.088 532.311C670.076 529.795 673.672 527.181 677.702 524.704C685.721 519.79 693.446 516.528 698.576 515.623L702.134 522.719Z" fill="#9A3B82"/>
<path d="M730.852 570.541L676.917 609.282C672.337 612.466 665.222 615.12 666.165 603.602C667.482 587.72 671 564.094 679.688 549.47C680.062 549.372 703.412 542.63 706.557 531.544L731.146 549.018C738.222 554.522 738.065 565.254 730.852 570.541Z" fill="white"/>
<path fill-rule="evenodd" clip-rule="evenodd" d="M709.543 532.765C710.074 532.916 710.382 533.469 710.231 534C709.23 537.526 706.889 540.675 703.964 543.383C701.033 546.096 697.462 548.417 693.901 550.283C690.337 552.149 686.754 553.575 683.779 554.485C682.291 554.939 680.942 555.27 679.814 555.461C678.718 555.646 677.726 555.719 677.007 555.584C676.464 555.481 676.107 554.959 676.209 554.416C676.311 553.873 676.834 553.516 677.376 553.618C677.729 553.684 678.426 553.667 679.48 553.489C680.502 553.316 681.765 553.009 683.194 552.572C686.051 551.698 689.519 550.32 692.973 548.511C696.429 546.701 699.84 544.475 702.605 541.915C705.375 539.351 707.442 536.502 708.307 533.453C708.458 532.922 709.011 532.614 709.543 532.765Z" fill="#FFCF2D"/>
<path d="M671.393 605.292C671.393 605.292 706.596 556.389 731.637 559.141C758.899 562.109 649.103 633.813 671.393 605.292Z" fill="#FFCF2D"/>
<path fill-rule="evenodd" clip-rule="evenodd" d="M669.571 604.423C669.57 604.423 669.57 604.424 668.76 603.838L669.571 604.423L669.559 604.439L669.548 604.453C667.671 606.857 667.601 608.554 667.983 609.508C668.372 610.482 669.35 611.021 670.327 610.958C670.878 610.922 671.353 611.34 671.389 611.891C671.425 612.442 671.007 612.918 670.456 612.954C668.7 613.067 666.867 612.103 666.126 610.251C665.379 608.383 665.856 605.938 667.96 603.237L667.978 603.213L668.059 603.102C668.13 603.005 668.236 602.861 668.374 602.674C668.651 602.3 669.06 601.753 669.59 601.058C670.648 599.67 672.188 597.691 674.117 595.327C677.974 590.6 683.393 584.323 689.635 578.131C695.872 571.944 702.959 565.815 710.154 561.408C717.327 557.015 724.741 554.249 731.588 555.002C731.589 555.002 731.589 555.002 731.59 555.002L731.481 555.996L731.587 555.002C731.588 555.002 731.588 555.002 731.588 555.002C733.877 555.248 735.523 556.328 736.428 557.862C737.318 559.37 737.423 561.204 736.871 562.858C736.697 563.382 736.13 563.665 735.607 563.49C735.083 563.316 734.799 562.749 734.974 562.225C735.366 561.049 735.265 559.826 734.705 558.878C734.16 557.954 733.114 557.177 731.374 556.991L731.371 556.99C725.178 556.309 718.232 558.806 711.199 563.114C704.189 567.408 697.226 573.419 691.043 579.551C684.866 585.678 679.495 591.899 675.667 596.591C673.754 598.936 672.227 600.897 671.18 602.271C670.657 602.957 670.253 603.497 669.981 603.864C669.845 604.048 669.742 604.189 669.673 604.283L669.595 604.389L669.576 604.415L669.571 604.423Z" fill="#FFCF2D"/>
<path d="M806.248 399.066C793.786 396.118 762.769 388.354 727.389 380.177C710.761 376.344 696.845 365.023 689.67 349.534L657.455 279.835L676.953 248.937C682.948 239.424 693.169 233.37 704.392 232.682L723.576 231.502C742.917 230.323 758.445 242.392 764.342 260.848L803.358 375.008C807.643 385.7 806.248 399.066 806.248 399.066Z" fill="white"/>
<path fill-rule="evenodd" clip-rule="evenodd" d="M723.606 232.002C723.606 232.002 723.606 232.002 723.606 232.002L704.423 233.181C693.36 233.859 683.285 239.826 677.376 249.204L658.023 279.872L690.124 349.324C690.124 349.324 690.124 349.324 690.124 349.324M723.606 232.002C742.691 230.838 758.029 242.734 763.865 261ZM764.816 260.691C758.858 242.047 743.141 229.809 723.545 231.003L704.361 232.183C704.361 232.183 704.361 232.183 704.361 232.183C692.978 232.881 682.611 239.021 676.53 248.67M676.53 248.67L656.887 279.799L689.216 349.744C696.455 365.372 710.497 376.797 727.276 380.664C751.715 386.312 774.062 391.761 789.658 395.564C796.643 397.267 802.273 398.64 806.132 399.553L806.685 399.684L806.744 399.118L806.247 399.066C806.744 399.118 806.744 399.118 806.744 399.118L806.744 399.117L806.745 399.115L806.745 399.107L806.749 399.076C806.751 399.049 806.755 399.01 806.76 398.959C806.769 398.856 806.782 398.705 806.797 398.509C806.827 398.118 806.865 397.549 806.898 396.833C806.962 395.402 807.003 393.382 806.909 391.027C806.721 386.326 805.996 380.253 803.827 374.834L764.818 260.696C764.817 260.694 764.817 260.693 764.816 260.691M805.799 398.446C805.799 398.441 805.8 398.437 805.8 398.432C805.83 398.051 805.867 397.492 805.899 396.788C805.962 395.379 806.002 393.389 805.91 391.066C805.724 386.414 805.006 380.464 802.894 375.194L802.889 375.182L763.865 261" fill="#FE5244"/>
<path fill-rule="evenodd" clip-rule="evenodd" d="M673.572 284.285C673.572 284.284 673.572 284.284 674.415 283.747C675.259 283.21 675.259 283.21 675.258 283.209L675.258 283.209C675.258 283.209 675.258 283.209 675.259 283.21L675.262 283.215L675.281 283.244C675.298 283.27 675.326 283.311 675.363 283.367C675.438 283.477 675.553 283.643 675.71 283.858C676.023 284.287 676.5 284.911 677.147 285.675C678.44 287.202 680.41 289.283 683.099 291.475C688.474 295.859 696.72 300.686 708.196 302.433L707.895 304.411C696.001 302.6 687.432 297.59 681.835 293.025C679.037 290.744 676.981 288.573 675.621 286.967C674.94 286.164 674.433 285.501 674.094 285.035C673.924 284.802 673.796 284.619 673.709 284.491C673.666 284.427 673.633 284.378 673.61 284.343L673.583 284.302L673.576 284.29L673.573 284.286L673.572 284.285Z" fill="#FE5244"/>
<path d="M688.254 254.421C687.193 253.281 685.326 253.595 684.677 254.991C683.95 256.563 685.267 258.313 686.977 258.057C688.726 257.802 689.453 255.698 688.254 254.421Z" fill="white"/>
<path fill-rule="evenodd" clip-rule="evenodd" d="M684.225 254.78C685.021 253.067 687.314 252.677 688.621 254.079C690.095 255.652 689.199 258.238 687.05 258.552C684.949 258.865 683.33 256.716 684.224 254.781L684.225 254.78ZM685.132 255.201C684.573 256.411 685.586 257.76 686.904 257.563L686.906 257.562C688.255 257.365 688.813 255.746 687.891 254.763L687.89 254.762L687.89 254.762C687.073 253.885 685.633 254.124 685.132 255.201Z" fill="#FE5244"/>
<path d="M737.215 288.012C736.154 286.872 734.287 287.187 733.638 288.582C732.911 290.155 734.228 291.904 735.938 291.648C737.687 291.393 738.414 289.29 737.215 288.012Z" fill="white"/>
<path fill-rule="evenodd" clip-rule="evenodd" d="M733.186 288.371C733.982 286.658 736.275 286.269 737.582 287.671C739.056 289.243 738.16 291.829 736.011 292.143C733.91 292.456 732.291 290.307 733.185 288.372L733.186 288.371L733.186 288.371ZM734.093 288.792C734.594 287.715 736.034 287.476 736.85 288.353L736.85 288.353L736.852 288.354C737.774 289.337 737.216 290.957 735.867 291.154L735.865 291.154C734.547 291.351 733.534 290.002 734.093 288.792Z" fill="#FE5244"/>
<path d="M752.725 301.771C751.664 300.631 749.797 300.945 749.148 302.341C748.421 303.913 749.738 305.663 751.448 305.407C753.177 305.171 753.905 303.068 752.725 301.771Z" fill="white"/>
<path fill-rule="evenodd" clip-rule="evenodd" d="M748.694 302.13C749.49 300.417 751.784 300.027 753.09 301.43L753.094 301.435L753.094 301.435C754.531 303.016 753.662 305.607 751.517 305.902C749.417 306.214 747.799 304.065 748.693 302.131L748.694 302.13ZM749.601 302.551C749.041 303.761 750.055 305.11 751.373 304.913L751.379 304.912L751.379 304.912C752.691 304.733 753.274 303.122 752.356 302.109C751.54 301.235 750.101 301.475 749.601 302.551Z" fill="#FE5244"/>
<path d="M782.462 379.626C781.4 378.486 779.533 378.801 778.884 380.196C778.157 381.769 779.474 383.518 781.184 383.263C782.914 383.007 783.641 380.924 782.462 379.626Z" fill="white"/>
<path fill-rule="evenodd" clip-rule="evenodd" d="M778.432 379.986C779.228 378.272 781.522 377.883 782.829 379.286L782.833 379.29L782.833 379.29C784.275 380.877 783.392 383.442 781.258 383.757C779.157 384.071 777.536 381.922 778.431 379.987L778.432 379.986L778.432 379.986ZM779.339 380.407C778.78 381.616 779.793 382.965 781.111 382.768L781.112 382.768C782.436 382.572 783.008 380.973 782.095 379.965C781.278 379.091 779.84 379.33 779.339 380.407Z" fill="#FE5244"/>
<path d="M765.815 342.419C764.754 341.278 762.886 341.593 762.238 342.989C761.51 344.561 762.827 346.31 764.537 346.055C766.287 345.799 767.014 343.696 765.815 342.419Z" fill="white"/>
<path fill-rule="evenodd" clip-rule="evenodd" d="M761.785 342.778C762.582 341.065 764.875 340.675 766.181 342.077C767.656 343.649 766.759 346.236 764.611 346.55C762.51 346.862 760.89 344.713 761.785 342.779L761.785 342.778L761.785 342.778ZM762.692 343.199C763.193 342.121 764.634 341.882 765.45 342.759L765.45 342.759L765.451 342.761C766.374 343.744 765.816 345.363 764.466 345.56L764.465 345.56C763.147 345.757 762.133 344.409 762.692 343.199Z" fill="#FE5244"/>
<path d="M772.714 315.648C771.18 315.844 770.335 317.554 771.102 318.891C771.967 320.404 774.148 320.345 774.935 318.793C775.741 317.22 774.443 315.412 772.714 315.648Z" fill="white"/>
<path fill-rule="evenodd" clip-rule="evenodd" d="M772.648 315.152C774.775 314.863 776.37 317.087 775.381 319.02C774.415 320.925 771.731 320.999 770.668 319.139C769.726 317.495 770.762 315.395 772.648 315.152ZM774.49 318.565C775.111 317.353 774.113 315.962 772.782 316.143L772.778 316.144L772.778 316.144C771.599 316.295 770.946 317.614 771.536 318.642L771.536 318.643C772.203 319.809 773.882 319.765 774.489 318.567L774.49 318.565Z" fill="#FE5244"/>
<path d="M785.274 355.352C783.741 355.549 782.896 357.259 783.662 358.595C784.527 360.109 786.709 360.05 787.495 358.497C788.301 356.924 787.023 355.116 785.274 355.352Z" fill="white"/>
<path fill-rule="evenodd" clip-rule="evenodd" d="M785.209 354.856C787.358 354.568 788.929 356.794 787.941 358.724C786.975 360.63 784.292 360.703 783.229 358.844C782.286 357.199 783.323 355.099 785.209 354.856ZM787.051 358.269C787.673 357.055 786.69 355.666 785.341 355.848L785.338 355.848L785.338 355.848C784.159 355.999 783.507 357.318 784.096 358.346L784.097 358.347C784.764 359.514 786.443 359.47 787.05 358.271L787.051 358.269Z" fill="#FE5244"/>
<path d="M733.186 312.523C732.125 311.383 730.257 311.697 729.609 313.093C728.882 314.665 730.198 316.414 731.909 316.159C733.638 315.903 734.365 313.82 733.186 312.523Z" fill="white"/>
<path fill-rule="evenodd" clip-rule="evenodd" d="M729.156 312.882C729.953 311.168 732.247 310.779 733.553 312.182L733.557 312.186L733.557 312.186C735 313.773 734.117 316.338 731.983 316.653C729.881 316.967 728.261 314.818 729.156 312.883L729.156 312.882ZM730.063 313.303C729.504 314.513 730.518 315.861 731.836 315.664L731.836 315.664C733.161 315.469 733.732 313.869 732.819 312.861C732.002 311.987 730.564 312.226 730.063 313.303Z" fill="#FE5244"/>
<path d="M722.356 334.792C721.295 333.652 719.427 333.967 718.779 335.362C718.051 336.935 719.368 338.684 721.078 338.429C722.828 338.173 723.555 336.07 722.356 334.792Z" fill="white"/>
<path fill-rule="evenodd" clip-rule="evenodd" d="M718.324 335.152C719.121 333.439 721.414 333.049 722.72 334.451C724.195 336.023 723.299 338.609 721.15 338.923C719.049 339.236 717.429 337.087 718.324 335.152L718.324 335.152L718.324 335.152ZM719.231 335.573C719.733 334.495 721.173 334.256 721.989 335.133L721.989 335.133L721.991 335.134C722.913 336.117 722.355 337.737 721.005 337.934L721.004 337.934C719.686 338.131 718.672 336.782 719.231 335.573Z" fill="#FE5244"/>
<path d="M702.976 327.009C704.116 325.947 703.801 324.08 702.406 323.431C700.833 322.704 699.084 324.021 699.339 325.731C699.595 327.461 701.678 328.188 702.976 327.009Z" fill="white"/>
<path fill-rule="evenodd" clip-rule="evenodd" d="M698.845 325.805C698.531 323.703 700.681 322.083 702.616 322.978L702.617 322.978C704.33 323.774 704.72 326.068 703.317 327.375L703.312 327.379L703.312 327.379C701.725 328.821 699.161 327.938 698.845 325.805ZM702.196 323.885C700.986 323.326 699.637 324.339 699.834 325.657L699.834 325.658C700.03 326.983 701.63 327.554 702.637 326.641C703.512 325.824 703.272 324.386 702.196 323.885Z" fill="#FE5244"/>
<path d="M720.175 365.337C721.315 364.276 721.001 362.408 719.605 361.76C718.033 361.032 716.283 362.349 716.539 364.059C716.794 365.809 718.897 366.536 720.175 365.337Z" fill="white"/>
<path fill-rule="evenodd" clip-rule="evenodd" d="M716.044 364.133C715.73 362.031 717.88 360.411 719.815 361.306L719.816 361.306C721.529 362.102 721.919 364.396 720.517 365.702C718.944 367.177 716.358 366.28 716.044 364.132L716.539 364.059L716.044 364.133ZM719.395 362.213C718.185 361.654 716.837 362.667 717.033 363.985L717.034 363.987C717.231 365.337 718.85 365.895 719.833 364.972L719.835 364.971L719.835 364.971C720.711 364.155 720.472 362.714 719.395 362.213Z" fill="#FE5244"/>
<path d="M749.128 332.453C750.268 331.392 749.954 329.525 748.558 328.876C746.986 328.149 745.236 329.466 745.492 331.176C745.747 332.905 747.85 333.652 749.128 332.453Z" fill="white"/>
<path fill-rule="evenodd" clip-rule="evenodd" d="M744.998 331.249C744.684 329.147 746.833 327.527 748.768 328.422L748.769 328.422C750.482 329.219 750.872 331.512 749.47 332.818C747.894 334.296 745.311 333.372 744.998 331.249ZM748.348 329.329C747.138 328.77 745.79 329.784 745.987 331.102L745.987 331.102C746.184 332.438 747.807 333.007 748.786 332.089L748.788 332.087L748.788 332.087C749.665 331.271 749.425 329.831 748.348 329.329Z" fill="#FE5244"/>
<path d="M759.015 373.612C760.155 372.55 759.84 370.683 758.445 370.035C756.872 369.307 755.123 370.624 755.379 372.334C755.614 374.084 757.718 374.811 759.015 373.612Z" fill="white"/>
<path fill-rule="evenodd" clip-rule="evenodd" d="M754.884 372.405C754.573 370.305 756.721 368.686 758.655 369.581L758.656 369.581C760.369 370.378 760.759 372.672 759.356 373.978L759.354 373.979C757.771 375.443 755.178 374.566 754.884 372.405ZM758.235 370.488C757.025 369.929 755.676 370.942 755.873 372.26L755.874 372.268L755.874 372.268C756.054 373.602 757.665 374.178 758.675 373.245C759.551 372.429 759.312 370.989 758.235 370.488Z" fill="#FE5244"/>
<path d="M699.733 290.253C698.672 289.113 696.804 289.427 696.156 290.823C695.428 292.395 696.745 294.145 698.455 293.889C700.205 293.634 700.932 291.53 699.733 290.253Z" fill="white"/>
<path fill-rule="evenodd" clip-rule="evenodd" d="M695.703 290.612C696.499 288.899 698.793 288.509 700.099 289.911C701.574 291.484 700.677 294.07 698.529 294.384C696.428 294.697 694.808 292.548 695.703 290.613L695.703 290.612L695.703 290.612ZM696.61 291.033C697.111 289.956 698.552 289.717 699.368 290.594L699.368 290.594L699.369 290.595C700.292 291.578 699.734 293.197 698.384 293.394L698.383 293.395C697.064 293.592 696.051 292.243 696.61 291.033Z" fill="#FE5244"/>
<path d="M703.251 239.266C702.189 238.126 700.322 238.441 699.673 239.836C698.946 241.409 700.263 243.158 701.973 242.903C703.722 242.647 704.45 240.544 703.251 239.266Z" fill="white"/>
<path fill-rule="evenodd" clip-rule="evenodd" d="M699.221 239.626C700.017 237.913 702.311 237.523 703.617 238.925C705.091 240.497 704.195 243.083 702.046 243.397C699.945 243.71 698.326 241.561 699.22 239.626L699.221 239.626L699.221 239.626ZM700.128 240.047C699.569 241.256 700.582 242.605 701.9 242.408L701.902 242.408L701.902 242.408C703.251 242.211 703.81 240.591 702.887 239.608L702.886 239.607L702.886 239.607C702.069 238.73 700.629 238.969 700.128 240.047Z" fill="#FE5244"/>
<path d="M737.215 239.266C736.154 238.126 734.287 238.441 733.638 239.836C732.911 241.409 734.228 243.158 735.938 242.903C737.687 242.647 738.414 240.544 737.215 239.266Z" fill="white"/>
<path fill-rule="evenodd" clip-rule="evenodd" d="M733.186 239.626C733.982 237.913 736.275 237.523 737.582 238.925C739.056 240.497 738.16 243.083 736.011 243.397C733.91 243.71 732.291 241.561 733.185 239.626L733.186 239.626L733.186 239.626ZM734.093 240.047C734.594 238.969 736.034 238.73 736.85 239.607L736.85 239.607L736.852 239.608C737.774 240.591 737.216 242.211 735.867 242.408L735.865 242.408C734.547 242.605 733.534 241.256 734.093 240.047Z" fill="#FE5244"/>
<path d="M737.274 261.28C735.839 261.85 735.427 263.698 736.508 264.818C737.707 266.057 739.81 265.487 740.203 263.796C740.596 262.086 738.906 260.632 737.274 261.28Z" fill="white"/>
<path fill-rule="evenodd" clip-rule="evenodd" d="M737.09 260.816C739.097 260.018 741.174 261.807 740.691 263.908L740.69 263.91C740.207 265.989 737.621 266.687 736.149 265.166L736.148 265.166C734.818 263.787 735.328 261.516 737.09 260.816M739.716 263.684C740.019 262.366 738.715 261.246 737.459 261.745L737.459 261.745C736.352 262.185 736.036 263.609 736.868 264.471C737.793 265.427 739.413 264.984 739.716 263.684Z" fill="#FE5244"/>
<path d="M717.974 248.74C716.48 249.173 715.91 250.961 716.853 252.18C717.934 253.536 720.077 253.163 720.627 251.531C721.197 249.861 719.644 248.249 717.974 248.74Z" fill="white"/>
<path fill-rule="evenodd" clip-rule="evenodd" d="M717.834 248.26C719.895 247.655 721.801 249.641 721.101 251.693C720.422 253.702 717.788 254.154 716.463 252.492L716.458 252.486L716.458 252.486C715.301 250.991 715.999 248.792 717.834 248.26ZM720.154 251.37C720.594 250.081 719.395 248.844 718.115 249.22L718.113 249.221L718.113 249.221C716.962 249.554 716.521 250.929 717.247 251.871C718.084 252.917 719.731 252.623 720.154 251.372L720.154 251.37Z" fill="#FE5244"/>
<path d="M715.123 303.186C713.59 303.363 712.725 305.053 713.472 306.41C714.317 307.923 716.499 307.903 717.305 306.37C718.13 304.817 716.872 302.99 715.123 303.186Z" fill="white"/>
<path fill-rule="evenodd" clip-rule="evenodd" d="M715.067 302.689C717.21 302.449 718.763 304.691 717.747 306.604C716.754 308.491 714.072 308.51 713.036 306.653L713.034 306.651L713.034 306.651C712.118 304.986 713.176 302.907 715.066 302.689L715.067 302.689L715.067 302.689ZM715.18 303.683C716.535 303.531 717.497 304.944 716.864 306.136L716.862 306.138C716.243 307.315 714.564 307.336 713.909 306.167C713.334 305.119 714.004 303.819 715.18 303.683Z" fill="#FE5244"/>
<path d="M698.279 344.128C696.746 344.305 695.881 345.996 696.628 347.352C697.473 348.865 699.655 348.846 700.461 347.313C701.287 345.76 700.029 343.932 698.279 344.128Z" fill="white"/>
<path fill-rule="evenodd" clip-rule="evenodd" d="M698.224 343.632C700.366 343.391 701.919 345.633 700.903 347.546C699.91 349.433 697.228 349.452 696.192 347.596L696.19 347.593L696.19 347.593C695.274 345.929 696.332 343.85 698.222 343.632L698.224 343.632L698.224 343.632ZM698.336 344.625C699.692 344.474 700.653 345.886 700.02 347.078L700.019 347.08C699.4 348.258 697.72 348.279 697.066 347.11C696.49 346.062 697.161 344.761 698.336 344.625Z" fill="#FE5244"/>
<path d="M703.939 264.976C702.445 265.408 701.875 267.197 702.818 268.415C703.899 269.772 706.042 269.398 706.592 267.767C707.162 266.116 705.629 264.504 703.939 264.976Z" fill="white"/>
<path fill-rule="evenodd" clip-rule="evenodd" d="M707.065 267.928C707.768 265.89 705.876 263.916 703.804 264.494L703.804 264.494L703.8 264.495C701.964 265.027 701.265 267.226 702.423 268.722L702.423 268.722L702.427 268.727C703.752 270.389 706.386 269.937 707.065 267.928ZM704.075 265.457C705.384 265.093 706.556 266.341 706.12 267.604L706.118 267.607C705.696 268.859 704.049 269.153 703.212 268.107C702.486 267.165 702.926 265.791 704.075 265.457Z" fill="#FE5244"/>
<path d="M720.214 275.983C718.72 276.415 718.15 278.204 719.094 279.423C720.175 280.779 722.317 280.405 722.867 278.774C723.437 277.103 721.904 275.491 720.214 275.983Z" fill="white"/>
<path fill-rule="evenodd" clip-rule="evenodd" d="M720.075 275.503C722.157 274.898 724.04 276.885 723.341 278.935C722.662 280.944 720.028 281.397 718.703 279.734L718.698 279.729L718.698 279.729C717.541 278.233 718.239 276.034 720.075 275.503ZM722.394 278.612C722.835 277.322 721.652 276.085 720.354 276.463L720.353 276.463C719.202 276.796 718.761 278.172 719.487 279.114C720.324 280.16 721.972 279.866 722.394 278.614L722.394 278.612Z" fill="#FE5244"/>
<path d="M684.973 275.511C685.956 274.312 685.425 272.504 683.931 272.052C682.28 271.541 680.707 273.074 681.199 274.725C681.69 276.415 683.852 276.867 684.973 275.511Z" fill="white"/>
<path fill-rule="evenodd" clip-rule="evenodd" d="M684.076 271.574C685.916 272.132 686.563 274.359 685.359 275.828L685.357 275.83C683.98 277.497 681.322 276.938 680.718 274.866C680.112 272.825 682.053 270.949 684.076 271.574ZM683.782 272.529C682.505 272.134 681.302 273.323 681.677 274.582L681.678 274.585L681.678 274.585C682.058 275.893 683.723 276.237 684.586 275.193C685.346 274.265 684.932 272.877 683.785 272.53L683.782 272.529Z" fill="#FE5244"/>
<path d="M759.486 275.57C760.469 274.371 759.938 272.563 758.445 272.111C756.794 271.6 755.221 273.133 755.713 274.784C756.184 276.474 758.366 276.926 759.486 275.57Z" fill="white"/>
<path fill-rule="evenodd" clip-rule="evenodd" d="M758.59 271.633C760.43 272.19 761.077 274.418 759.872 275.887L759.871 275.889C758.498 277.551 755.815 277.004 755.231 274.922C754.627 272.882 756.567 271.008 758.59 271.633ZM758.296 272.588C757.018 272.193 755.816 273.382 756.191 274.641L756.193 274.65L756.193 274.65C756.555 275.945 758.232 276.301 759.099 275.252C759.859 274.324 759.446 272.936 758.299 272.589L758.296 272.588Z" fill="#FE5244"/>
<path d="M740.576 355.254C741.559 354.055 741.028 352.246 739.534 351.794C737.883 351.283 736.311 352.817 736.802 354.468C737.274 356.138 739.456 356.59 740.576 355.254Z" fill="white"/>
<path fill-rule="evenodd" clip-rule="evenodd" d="M739.682 351.316C741.521 351.874 742.168 354.101 740.964 355.571L740.96 355.575L740.96 355.575C739.589 357.212 736.908 356.67 736.323 354.607C735.719 352.566 737.659 350.691 739.682 351.316ZM739.388 352.272C738.11 351.877 736.908 353.065 737.283 354.325L737.285 354.332L737.285 354.332C737.645 355.607 739.324 355.968 740.192 354.935C740.951 354.007 740.537 352.62 739.391 352.273L739.388 352.272Z" fill="#FE5244"/>
<path d="M724.893 230.854C724.461 230.874 724.028 230.893 723.576 230.913L704.392 232.092C699.498 232.387 694.82 233.704 690.574 235.886L684.678 218.235L710.957 198.973L724.893 230.854Z" fill="#E57281"/>
<path d="M690.496 235.61C695.96 233.134 700.324 228.731 702.8 223.267L712.353 202.137L710.957 198.953L684.678 218.215L690.496 235.61Z" fill="#9A3B82"/>
<path d="M712.649 200.741C712.649 202.569 711.902 204.221 710.703 205.42C709.504 206.619 707.853 207.365 706.025 207.365H700.246C697.966 216.23 689.141 222.304 679.647 220.633L675.303 219.866C670.547 219.021 667.304 214.579 667.972 209.803L673.063 184.309C673.947 178.865 679.549 175.543 684.758 177.41L693.19 180.791C697.75 182.364 700.816 186.648 700.816 191.464V193.921L706.025 194.118C709.681 194.118 712.649 197.086 712.649 200.741Z" fill="#E57281"/>
<path fill-rule="evenodd" clip-rule="evenodd" d="M707.439 198.439C705.456 198.439 703.859 200.035 703.859 202.019C703.859 202.571 703.412 203.019 702.859 203.019C702.307 203.019 701.859 202.571 701.859 202.019C701.859 198.931 704.351 196.439 707.439 196.439C707.991 196.439 708.439 196.887 708.439 197.439C708.439 197.991 707.991 198.439 707.439 198.439Z" fill="#9A3B82"/>
<path fill-rule="evenodd" clip-rule="evenodd" d="M674.893 189.675C674.893 189.123 675.34 188.675 675.893 188.675V189.675C675.893 188.675 675.893 188.675 675.894 188.675L675.895 188.675L675.897 188.675L675.903 188.675L675.92 188.675C675.933 188.675 675.95 188.676 675.971 188.676C676.013 188.678 676.07 188.68 676.141 188.685C676.283 188.694 676.481 188.712 676.725 188.747C677.212 188.816 677.885 188.954 678.658 189.226C680.206 189.772 682.155 190.863 683.77 193.028C684.1 193.47 684.009 194.097 683.567 194.427C683.124 194.758 682.497 194.667 682.167 194.224C680.834 192.438 679.245 191.554 677.992 191.112C677.364 190.89 676.821 190.781 676.442 190.727C676.253 190.7 676.106 190.687 676.011 190.681C675.963 190.678 675.929 190.676 675.909 190.676L675.889 190.675C675.888 190.675 675.888 190.675 675.888 190.675C675.888 190.675 675.888 190.675 675.888 190.675" fill="#9A3B82"/>
<path d="M678.636 197.032C678.844 195.889 678.579 194.884 678.045 194.787C677.511 194.69 676.91 195.537 676.702 196.68C676.495 197.823 676.759 198.828 677.293 198.925C677.827 199.022 678.428 198.174 678.636 197.032Z" fill="#9A3B82"/>
<path d="M706.024 194.118C709.68 194.118 712.648 197.086 712.648 200.742C712.648 200.761 712.648 200.801 712.648 200.84C715.596 196.299 722.83 184.742 722.83 180.83C722.83 175.582 716.284 170.334 709.503 172.732C709.955 172.398 710.427 172.044 710.918 171.671C713.533 169.627 714.908 168.094 715.125 166.993C715.203 166.6 715.144 166.246 714.948 165.971C714.161 164.851 713.297 164.359 712.373 164.516C711.017 164.733 709.621 166.403 708.225 169.47C707.596 170.865 707.105 172.241 706.83 173.086C706.28 169.804 703.626 158.934 692.226 160.605C688.295 161.175 686.447 162.806 685.936 164.595C682.673 162.04 678.31 160.035 674.693 161.942C668.443 165.224 669.209 170.61 672.826 174.423C669.406 174.364 667.008 175.366 667.008 178.256C667.008 180.909 669.74 182.187 673.494 182.698C677.248 183.209 682.064 182.934 686.231 182.462C689.199 182.128 691.872 181.715 693.582 181.42C692.442 183.759 691.99 185.764 692.088 187.454C692.265 190.953 694.801 193.017 698.378 193.744C699.145 193.901 699.97 194 700.815 194.039L706.024 194.118ZM712.491 165.303C712.55 165.283 712.609 165.283 712.687 165.283C713.238 165.283 713.768 165.676 714.299 166.423C714.338 166.502 714.397 166.62 714.358 166.836C714.044 168.428 710.014 171.455 707.675 173.047C708.599 170.334 710.545 165.637 712.491 165.303Z" fill="#FFCF2D"/>
<path d="M690.339 171.121C688.983 171.121 687.607 170.393 686.605 169.116C685.484 167.701 685.111 165.951 685.582 164.438C685.641 164.241 685.838 164.123 686.035 164.163C686.113 164.163 686.192 164.182 686.251 164.241C689.219 166.364 691.597 169.391 691.243 170.59C691.165 170.904 690.909 171.101 690.575 171.121C690.496 171.121 690.418 171.121 690.339 171.121ZM686.211 165.185C686.035 166.325 686.388 167.583 687.214 168.624C688.098 169.745 689.317 170.393 690.496 170.315C690.536 169.804 689.219 167.465 686.211 165.185Z" fill="white"/>
<path d="M651.536 344.679H525.741C522.635 344.679 520.768 341.259 522.419 338.645L539.166 312.346C541.348 308.926 545.102 306.862 549.151 306.862H634.299L651.536 344.679Z" fill="#E57281"/>
<path d="M551.922 306.881L561.946 290.371C562.536 289.388 563.617 288.779 564.757 288.779C567.332 288.779 568.904 291.589 567.568 293.791L559.607 306.881H551.922Z" fill="#FE5244"/>
<path d="M651.535 344.679H623.251C623.192 344.62 623.113 344.542 623.055 344.483C616.175 337.407 613.246 326.675 617.119 316.336L621.148 306.862H634.297L651.535 344.679Z" fill="#9A3B82"/>
<path d="M543.51 327.029H527.747C526.685 327.029 525.702 327.599 525.172 328.522L523.501 331.431C522.381 333.397 523.796 335.854 526.076 335.854H538.754C540.955 335.854 542.999 334.714 544.159 332.827L545.515 330.606C546.459 329.033 545.338 327.029 543.51 327.029Z" fill="#E57281"/>
<path d="M539.442 335.854H523.678C522.617 335.854 521.634 336.424 521.103 337.348L519.433 340.257C518.312 342.222 519.727 344.679 522.008 344.679H534.685C536.887 344.679 538.931 343.539 540.091 341.652L541.447 339.431C542.41 337.859 541.27 335.854 539.442 335.854Z" fill="#E57281"/>
<path d="M548.012 318.085H532.249C531.187 318.085 530.204 318.655 529.674 319.579L528.003 322.488C526.883 324.454 528.298 326.911 530.578 326.911H543.256C545.457 326.911 547.501 325.771 548.661 323.884L550.017 321.663C550.98 320.09 549.84 318.085 548.012 318.085Z" fill="#E57281"/>
<path fill-rule="evenodd" clip-rule="evenodd" d="M524.304 328.024C525.012 326.791 526.325 326.029 527.746 326.029H543.51C546.128 326.029 547.709 328.893 546.372 331.12L546.368 331.127L545.012 333.348L545.01 333.351C543.669 335.533 541.302 336.854 538.753 336.854H526.075C523.026 336.854 521.132 333.567 522.632 330.936L522.633 330.933L524.304 328.024ZM526.038 329.021C526.038 329.021 526.038 329.02 526.038 329.021L524.369 331.927C524.369 331.927 524.369 331.927 524.368 331.928C523.628 333.228 524.565 334.854 526.075 334.854H538.753C540.606 334.854 542.328 333.895 543.306 332.305C543.306 332.304 543.306 332.304 543.306 332.303L544.659 330.088C545.206 329.172 544.546 328.029 543.51 328.029H527.746C527.044 328.029 526.391 328.406 526.038 329.021Z" fill="#9A3B82"/>
<path fill-rule="evenodd" clip-rule="evenodd" d="M520.236 336.849C520.944 335.616 522.257 334.854 523.678 334.854H539.441C542.044 334.854 543.674 337.709 542.299 339.953L540.943 342.173L540.942 342.176C539.6 344.359 537.234 345.679 534.685 345.679H522.007C518.957 345.679 517.064 342.392 518.563 339.761L518.565 339.759L520.236 336.849ZM521.97 337.846C521.97 337.846 521.97 337.846 521.97 337.846L520.301 340.752C520.301 340.752 520.3 340.753 520.3 340.753C519.56 342.054 520.497 343.679 522.007 343.679H534.685C536.538 343.679 538.259 342.72 539.237 341.13C539.237 341.129 539.238 341.129 539.238 341.129L540.593 338.91L540.593 338.909C541.145 338.008 540.495 336.854 539.441 336.854H523.678C522.976 336.854 522.323 337.231 521.97 337.846Z" fill="#9A3B82"/>
<path fill-rule="evenodd" clip-rule="evenodd" d="M528.806 319.081C529.514 317.848 530.827 317.085 532.248 317.085H548.012C550.614 317.085 552.244 319.94 550.869 322.185C550.869 322.185 550.869 322.185 550.869 322.185L549.514 324.405L549.512 324.407C548.171 326.59 545.804 327.911 543.255 327.911H530.577C527.528 327.911 525.634 324.623 527.134 321.993L527.135 321.99L528.806 319.081ZM530.54 320.077C530.54 320.077 530.54 320.077 530.54 320.077L528.871 322.983C528.871 322.984 528.871 322.984 528.87 322.985C528.13 324.285 529.067 325.911 530.577 325.911H543.255C545.108 325.911 546.829 324.952 547.807 323.361C547.808 323.361 547.808 323.36 547.808 323.36L549.164 321.14C549.715 320.24 549.065 319.085 548.012 319.085H532.248C531.546 319.085 530.893 319.463 530.54 320.077Z" fill="#9A3B82"/>
<path d="M570.831 331.235C566.094 331.235 561.534 329.525 557.957 326.4L551.982 321.171H546.478L545.063 322.685C542.527 325.397 539.402 326.95 535.687 326.95H533.053C531.677 326.95 530.832 325.417 531.579 324.257L538.203 313.879H570.851V331.235H570.831Z" fill="#E57281"/>
<path fill-rule="evenodd" clip-rule="evenodd" d="M538.741 313.036C539.207 313.333 539.343 313.951 539.046 314.417L532.422 324.795L532.42 324.799C532.106 325.287 532.462 325.95 533.054 325.95H535.688C539.092 325.95 541.961 324.558 544.33 322.004L544.333 322.002L546.044 320.171H552.358L558.615 325.646C558.615 325.646 558.615 325.646 558.615 325.646C561.991 328.593 566.338 330.235 570.832 330.235C571.384 330.235 571.832 330.683 571.832 331.235C571.832 331.787 571.384 332.235 570.832 332.235C565.851 332.235 561.038 330.417 557.3 327.153L557.299 327.152L551.606 322.171H546.912L545.796 323.365C545.796 323.365 545.795 323.366 545.795 323.366C543.094 326.276 539.712 327.95 535.688 327.95H533.054C530.894 327.95 529.56 325.549 530.738 323.718C530.738 323.717 530.738 323.716 530.739 323.716L537.36 313.341C537.658 312.875 538.276 312.739 538.741 313.036Z" fill="#9A3B82"/>
<path d="M703.546 307.923L673.532 341.456C667.223 348.512 658.201 352.541 648.727 352.541C630.015 352.541 617.062 333.869 623.627 316.336L659.282 232.564L647.233 225.822C645.523 224.486 644.697 222.304 645.071 220.181L647.115 206.402C647.744 203.336 650.869 200.938 653.916 200.231L668.028 197.046C669.227 196.771 670.328 197.793 670.132 198.992L668.087 209.626C667.282 214.815 670.78 219.297 675.969 220.181C680.215 220.908 683.203 225.174 682.809 229.458L673.198 289.408C673.178 289.447 683.026 304.798 703.546 307.923Z" fill="#E57281"/>
<path fill-rule="evenodd" clip-rule="evenodd" d="M680.681 242.72C681.227 242.804 681.601 243.315 681.517 243.861L669.92 319.161C669.836 319.707 669.325 320.082 668.78 319.997C668.234 319.913 667.859 319.403 667.943 318.857L679.54 243.557C679.624 243.011 680.135 242.636 680.681 242.72Z" fill="#9A3B82"/>
<path fill-rule="evenodd" clip-rule="evenodd" d="M656.522 206.405C657.074 206.423 657.507 206.885 657.489 207.437L657.332 212.309C657.332 212.309 657.332 212.31 657.332 212.31C657.285 213.909 658.231 215.21 659.441 215.573L677.464 219.22C678.005 219.33 678.355 219.858 678.245 220.399C678.136 220.94 677.608 221.29 677.067 221.181L658.966 217.517L658.929 217.507C656.696 216.872 655.262 214.645 655.333 212.25L655.333 212.247L655.49 207.373C655.508 206.821 655.97 206.388 656.522 206.405Z" fill="#9A3B82"/>
<path fill-rule="evenodd" clip-rule="evenodd" d="M670.626 199.283C670.927 197.571 669.381 196.125 667.701 196.525ZM670.626 199.284L668.762 209.938C668.18 214.165 671.046 218.099 675.26 218.859L689.685 220.782C690.232 220.855 690.617 221.358 690.544 221.905C690.471 222.453 689.968 222.837 689.42 222.764L674.952 220.835L674.931 220.832C669.648 219.893 666.04 214.957 666.784 209.645L666.786 209.628L668.657 198.937C668.708 198.645 668.449 198.403 668.165 198.471L668.159 198.472L653.417 201.912C652.879 202.038 652.341 201.703 652.216 201.166C652.09 200.628 652.425 200.09 652.962 199.964L667.701 196.525" fill="#9A3B82"/>
<path fill-rule="evenodd" clip-rule="evenodd" d="M721.389 289.605L682.314 333.083L680.826 331.746L719.901 288.268L721.389 289.605Z" fill="#FE5244"/>
<path fill-rule="evenodd" clip-rule="evenodd" d="M658.693 232.584C658.693 232.031 659.141 231.584 659.693 231.584H666.592C667.145 231.584 667.592 232.031 667.592 232.584C667.592 233.136 667.145 233.584 666.592 233.584H659.693C659.141 233.584 658.693 233.136 658.693 232.584Z" fill="#9A3B82"/>
<path fill-rule="evenodd" clip-rule="evenodd" d="M663.089 198.839C663.91 199.397 664.541 200.334 664.527 201.521L664.389 211.776C664.386 213.27 663.303 214.675 661.699 214.675H659.537C657.206 214.675 655.51 212.58 655.51 210.275V208.702C655.51 208.15 655.957 207.702 656.51 207.702C657.062 207.702 657.51 208.15 657.51 208.702V210.275C657.51 211.704 658.526 212.675 659.537 212.675H661.699C661.979 212.675 662.389 212.395 662.389 211.769V211.755L662.527 201.496C662.527 201.496 662.527 201.496 662.527 201.496C662.532 201.091 662.328 200.74 661.964 200.493C661.585 200.234 661.106 200.145 660.716 200.24C660.179 200.37 659.639 200.04 659.508 199.504C659.378 198.967 659.707 198.426 660.244 198.296C661.23 198.057 662.284 198.291 663.089 198.839Z" fill="#9A3B82"/>
<path fill-rule="evenodd" clip-rule="evenodd" d="M663.527 207.702C664.08 207.702 664.527 208.15 664.527 208.702V210.275C664.527 211.704 665.544 212.675 666.554 212.675H667.93C668.482 212.675 668.93 213.123 668.93 213.675C668.93 214.227 668.482 214.675 667.93 214.675H666.554C664.223 214.675 662.527 212.58 662.527 210.275V208.702C662.527 208.15 662.975 207.702 663.527 207.702Z" fill="#9A3B82"/>
<path fill-rule="evenodd" clip-rule="evenodd" d="M815.392 646.689L792.572 456.777L795.551 456.419L818.371 646.331L815.392 646.689Z" fill="#66B0F0"/>
<path fill-rule="evenodd" clip-rule="evenodd" d="M670.846 646.331L693.666 456.419L696.644 456.777L673.824 646.689L670.846 646.331Z" fill="#66B0F0"/>
<path fill-rule="evenodd" clip-rule="evenodd" d="M809.04 582.792H680.158V579.792H809.04V582.792Z" fill="#66B0F0"/>
<path d="M682.005 457.187H806.032C807.683 457.187 809.019 455.851 809.019 454.2V450.151C809.019 448.5 807.683 447.163 806.032 447.163H682.005C680.354 447.163 679.018 448.5 679.018 450.151V454.2C679.018 455.851 680.354 457.187 682.005 457.187Z" fill="white"/>
<path fill-rule="evenodd" clip-rule="evenodd" d="M677.018 450.151C677.018 447.395 679.25 445.163 682.005 445.163H806.032C808.787 445.163 811.019 447.395 811.019 450.151V454.2C811.019 456.955 808.787 459.187 806.032 459.187H682.005C679.25 459.187 677.018 456.955 677.018 454.2V450.151ZM682.005 449.163C681.459 449.163 681.018 449.604 681.018 450.151V454.2C681.018 454.746 681.459 455.187 682.005 455.187H806.032C806.578 455.187 807.019 454.746 807.019 454.2V450.151C807.019 449.604 806.578 449.163 806.032 449.163H682.005Z" fill="#FFCF2D"/>
<path d="M475.623 313.466L456.636 352.541H399.262L422.318 313.466H475.623Z" fill="white"/>
<path fill-rule="evenodd" clip-rule="evenodd" d="M421.746 312.466H477.22L457.261 353.541H397.51L421.746 312.466ZM422.888 314.466L401.012 351.541H456.01L474.025 314.466H422.888Z" fill="#3FB1B5"/>
<path fill-rule="evenodd" clip-rule="evenodd" d="M440.759 320.702C441.188 320.977 441.609 321.246 442.02 321.496C442.602 321.851 443.317 321.981 444.209 321.911C445.11 321.841 446.126 321.572 447.249 321.192C447.951 320.955 448.647 320.691 449.365 320.42C449.812 320.251 450.268 320.079 450.739 319.907C451.929 319.474 453.166 319.068 454.373 318.851C457.651 318.249 460.037 319.115 461.606 320.176C462.38 320.7 462.945 321.263 463.319 321.7C463.506 321.918 463.647 322.107 463.744 322.246C463.792 322.315 463.83 322.372 463.857 322.414C463.87 322.435 463.881 322.453 463.889 322.466L463.9 322.483L463.903 322.49L463.905 322.492L463.905 322.493C463.906 322.494 463.906 322.494 463.043 322.999C462.18 323.504 462.18 323.505 462.181 323.505L462.182 323.508L462.17 323.489C462.158 323.47 462.136 323.436 462.104 323.391C462.041 323.3 461.94 323.164 461.8 323.001C461.518 322.672 461.084 322.238 460.485 321.833C459.308 321.037 457.448 320.32 454.732 320.818L454.729 320.819C453.696 321.005 452.589 321.362 451.423 321.787C451.004 321.939 450.569 322.103 450.129 322.27C449.38 322.552 448.617 322.841 447.89 323.087C446.718 323.483 445.515 323.816 444.364 323.905C443.202 323.996 442.03 323.843 440.981 323.205C440.48 322.9 440.006 322.597 439.547 322.304C438.424 321.585 437.393 320.926 436.274 320.44C434.776 319.79 433.235 319.517 431.391 320.031C429.372 320.595 427.605 321.42 426.34 322.109C425.709 322.452 425.207 322.759 424.866 322.978C424.695 323.088 424.565 323.175 424.478 323.234C424.435 323.263 424.403 323.286 424.383 323.3L424.361 323.315L424.357 323.318C424.357 323.318 424.357 323.318 423.771 322.508C423.185 321.698 423.185 321.698 423.186 321.697L423.187 321.696L423.19 321.694L423.199 321.688L423.232 321.665C423.259 321.645 423.298 321.618 423.349 321.583C423.45 321.514 423.597 321.415 423.786 321.295C424.162 321.053 424.706 320.721 425.384 320.352C426.738 319.615 428.647 318.721 430.854 318.105C433.236 317.44 435.253 317.816 437.071 318.605C438.346 319.159 439.585 319.951 440.759 320.702ZM462.182 323.508C462.183 323.509 462.183 323.51 462.183 323.509L462.182 323.508Z" fill="#3FB1B5"/>
<path fill-rule="evenodd" clip-rule="evenodd" d="M438.792 326.795C439.222 327.07 439.643 327.339 440.054 327.589C440.636 327.944 441.351 328.074 442.242 328.004C443.143 327.934 444.159 327.665 445.282 327.285C445.984 327.048 446.68 326.785 447.398 326.513C447.845 326.344 448.301 326.172 448.772 326C449.962 325.567 451.199 325.161 452.406 324.944C455.684 324.343 458.07 325.208 459.639 326.269C460.414 326.793 460.978 327.356 461.352 327.793C461.539 328.011 461.68 328.2 461.777 328.339C461.825 328.408 461.863 328.465 461.89 328.507C461.903 328.528 461.914 328.546 461.922 328.559L461.933 328.576L461.937 328.583L461.938 328.585L461.939 328.586C461.939 328.587 461.939 328.587 461.076 329.092C460.213 329.597 460.213 329.598 460.214 329.598L460.215 329.601L460.204 329.582C460.191 329.563 460.169 329.529 460.137 329.484C460.074 329.393 459.973 329.257 459.833 329.094C459.551 328.765 459.117 328.331 458.519 327.926C457.341 327.13 455.481 326.413 452.766 326.911L452.762 326.912C451.729 327.098 450.623 327.455 449.456 327.88C449.037 328.032 448.602 328.196 448.162 328.363C447.414 328.645 446.65 328.934 445.923 329.18C444.751 329.576 443.548 329.909 442.397 329.998C441.235 330.089 440.063 329.936 439.014 329.298C438.513 328.993 438.039 328.69 437.58 328.397C436.458 327.678 435.426 327.019 434.308 326.533C432.809 325.883 431.268 325.61 429.424 326.124C427.405 326.688 425.638 327.513 424.373 328.202C423.742 328.545 423.24 328.852 422.899 329.071C422.728 329.181 422.598 329.268 422.512 329.327C422.469 329.356 422.437 329.379 422.416 329.393L422.395 329.408L422.39 329.411C422.39 329.411 422.391 329.411 421.804 328.601C421.218 327.791 421.219 327.791 421.219 327.79L421.22 327.789L421.223 327.787L421.233 327.781L421.265 327.758C421.292 327.738 421.332 327.711 421.382 327.676C421.484 327.607 421.63 327.509 421.819 327.388C422.195 327.146 422.739 326.814 423.417 326.445C424.771 325.708 426.681 324.814 428.887 324.198C431.269 323.533 433.286 323.909 435.104 324.698C436.379 325.252 437.618 326.044 438.792 326.795ZM460.215 329.601C460.216 329.602 460.216 329.603 460.216 329.602L460.215 329.601Z" fill="#3FB1B5"/>
<path d="M497.205 488.833C497.205 494.081 482.64 498.327 464.4 498.327C446.16 498.327 432.027 494.081 432.027 488.833C432.027 483.585 446.16 479.339 464.4 479.339C482.64 479.339 497.205 483.604 497.205 488.833Z" fill="#FE5244"/>
<path d="M488.813 482.445V550.257L486.749 540.468C484.528 529.933 475.231 522.405 464.46 522.405C461.216 522.405 458.032 523.093 455.143 524.39C455.045 524.429 454.946 524.488 454.828 524.527L447.261 496.931L443.055 481.58C448.814 480.185 456.263 479.339 464.401 479.339C474.071 479.339 482.779 480.538 488.813 482.445Z" fill="#A0505A"/>
<path d="M488.813 482.445V495.221C482.779 497.128 474.071 498.327 464.401 498.327C458.13 498.327 452.273 497.816 447.261 496.951L443.055 481.6C448.814 480.204 456.263 479.359 464.401 479.359C474.071 479.34 482.779 480.539 488.813 482.445Z" fill="#73325A"/>
<path d="M487.358 548.272C487.889 548.429 492.881 549.824 497.304 549.824C499.702 549.824 501.923 549.412 503.181 548.154C504.262 547.073 504.517 545.5 503.947 543.515C503.436 541.746 502.453 540.645 501.018 540.252C498.385 539.544 494.729 541.51 491.839 543.574C496.34 538.11 500.783 531.171 499.132 526.631C498.542 525.019 497.205 523.938 495.535 523.741C494.139 523.584 492.842 524.076 492.232 524.999C489.402 529.304 487.083 546.974 486.984 547.721L487.358 548.272ZM493.058 525.55C493.412 525.019 494.159 524.705 495.023 524.705C495.161 524.705 495.299 524.705 495.436 524.724C496.065 524.803 497.579 525.157 498.227 526.965C498.66 528.164 498.817 530.365 497.068 534.061C495.417 537.559 492.429 541.667 488.183 546.326C488.812 541.844 490.817 528.95 493.058 525.55ZM502.493 547.466C501.195 548.763 498.247 549.156 493.942 548.606C491.682 548.311 489.579 547.839 488.459 547.544C489.304 546.797 490.876 545.441 492.704 544.183C496.203 541.766 498.994 540.724 500.783 541.215C501.864 541.51 502.591 542.355 503.023 543.79C503.495 545.441 503.318 546.64 502.493 547.466Z" fill="#FFCF2D"/>
<path d="M447.457 530.031L442.917 535.122C437.767 540.901 436.922 549.313 440.833 555.996L460.823 590.275C464.735 596.978 471.909 601.086 479.653 601.086H487.928C493.923 601.086 498.385 595.582 497.146 589.725L486.729 540.488C484.508 529.952 475.211 522.424 464.44 522.424C457.973 522.405 451.782 525.176 447.457 530.031Z" fill="white"/>
<path fill-rule="evenodd" clip-rule="evenodd" d="M446.71 529.366C451.224 524.299 457.687 521.404 464.441 521.424C475.683 521.425 485.388 529.283 487.707 540.281M487.707 540.281L498.125 589.518C499.495 595.998 494.558 602.086 487.928 602.086H479.653C471.554 602.086 464.05 597.789 459.959 590.779L439.97 556.501C439.97 556.501 439.97 556.501 439.97 556.501M464.437 523.424C458.258 523.406 452.339 526.054 448.204 530.696L443.663 535.787C443.663 535.787 443.663 535.787 443.663 535.787C438.802 541.243 438.004 549.183 441.696 555.491L441.697 555.492L461.687 589.771C465.419 596.166 472.264 600.086 479.653 600.086H487.928C493.288 600.086 497.275 595.167 496.168 589.932C496.168 589.932 496.168 589.932 496.168 589.932L485.751 540.695C483.627 530.623 474.739 523.424 464.44 523.424L464.437 523.424Z" fill="#3FB1B5"/>
<path d="M462.928 544.852L488.736 594.855C489.954 597.116 491.468 598.57 493.197 599.494C491.703 600.496 489.895 601.106 487.93 601.106H479.655C471.891 601.106 464.716 596.978 460.825 590.295L440.835 555.996C440.029 554.601 439.42 553.146 439.007 551.633C436.177 541.117 448.147 532.862 457.129 539.034C459.174 540.429 461.178 542.316 462.928 544.852Z" fill="#3FB1B5"/>
<path d="M462.985 544.97H439.162C439.28 544.596 439.418 544.243 439.575 543.908H462.218C462.454 544.223 462.69 544.537 462.926 544.872L462.985 544.97Z" fill="white"/>
<path d="M466.484 551.731H439.044C439.044 551.692 439.025 551.653 439.025 551.633C438.946 551.319 438.868 550.984 438.809 550.67H465.953L466.484 551.731Z" fill="white"/>
<path d="M469.982 558.512H442.307L441.678 557.431H469.431L469.982 558.512Z" fill="white"/>
<path d="M473.481 565.293H446.258L445.629 564.212H472.93L473.481 565.293Z" fill="white"/>
<path d="M476.98 572.055H450.209L449.58 570.994H476.43L476.98 572.055Z" fill="white"/>
<path d="M480.479 578.836H454.16L453.531 577.755H479.909L480.479 578.836Z" fill="white"/>
<path d="M483.976 585.617H458.109L457.48 584.536H483.406L483.976 585.617Z" fill="white"/>
<path d="M487.455 592.379H462.218C461.962 592.025 461.707 591.671 461.471 591.318H486.905L487.455 592.379Z" fill="white"/>
<path d="M492.626 599.16H470.691C469.983 598.846 469.295 598.492 468.627 598.099H491.211C491.663 598.492 492.135 598.846 492.626 599.16Z" fill="white"/>
<path d="M416.695 487.437C416.518 492.626 401.796 496.832 383.674 496.832C365.551 496.832 350.829 492.646 350.652 487.437V446.573H416.695V487.437Z" fill="#73325A"/>
<path d="M412.312 494.218L412.214 499.073L411.27 546.463V545.087C411.27 532.92 401.403 523.053 389.237 523.053H387.9C381.689 523.053 376.087 525.471 371.94 529.362L369.05 509.825L367.262 497.737C372.097 498.543 377.699 498.995 383.654 498.995C395.92 498.975 406.592 497.049 412.312 494.218Z" fill="#A0505A"/>
<path d="M412.312 494.218L412.214 499.073C404.902 504.262 382.318 510.65 369.07 509.805L367.281 497.717C372.117 498.503 377.718 498.975 383.674 498.975C395.919 498.975 406.592 497.048 412.312 494.218Z" fill="#73325A"/>
<path d="M390.239 601.734H393.895C403.487 601.734 411.271 593.951 411.271 584.359V545.087C411.271 532.92 401.404 523.053 389.237 523.053H387.9C373.748 523.053 362.84 535.535 364.746 549.569L369.365 583.533C370.8 593.951 379.704 601.734 390.239 601.734Z" fill="white"/>
<path fill-rule="evenodd" clip-rule="evenodd" d="M363.755 549.703C361.767 535.069 373.143 522.053 387.901 522.053H389.237C401.956 522.053 412.271 532.368 412.271 545.087V584.359C412.271 594.503 404.04 602.734 393.895 602.734H390.24C379.204 602.734 369.878 594.581 368.375 583.67L363.755 549.703ZM365.737 549.434C365.737 549.434 365.737 549.434 365.737 549.434L370.356 583.397C370.356 583.397 370.356 583.398 370.356 583.398C371.723 593.321 380.205 600.734 390.24 600.734H393.895C402.935 600.734 410.271 593.398 410.271 584.359V545.087C410.271 533.473 400.852 524.053 389.237 524.053H387.901C374.354 524.053 363.912 536 365.737 549.434Z" fill="#3FB1B5"/>
<path d="M405.806 596.997C402.7 599.926 398.494 601.734 393.894 601.734H390.238C379.703 601.734 370.799 593.951 369.384 583.533L364.765 549.569C364.686 548.92 364.608 548.271 364.588 547.642C365.767 540.114 372.273 534.355 380.135 534.355C384.008 534.355 387.585 535.77 390.356 538.129C393.128 540.488 395.074 543.81 395.683 547.642L401.757 589.096C402.209 592.182 403.663 594.934 405.806 596.997Z" fill="#3FB1B5"/>
<path d="M393.857 542.395H366.398C366.595 542.021 366.831 541.668 367.067 541.333H393.209C393.444 541.668 393.661 542.021 393.857 542.395Z" fill="white"/>
<path d="M395.901 549.156H364.708C364.668 548.803 364.629 548.449 364.609 548.095H395.744L395.901 549.156Z" fill="white"/>
<path d="M396.904 555.938H365.632L365.475 554.876H396.747L396.904 555.938Z" fill="white"/>
<path d="M397.887 562.719H366.556L366.398 561.637H397.729L397.887 562.719Z" fill="white"/>
<path d="M398.887 569.48H367.478L367.32 568.419H398.73L398.887 569.48Z" fill="white"/>
<path d="M399.872 576.261H368.384L368.246 575.2H399.715L399.872 576.261Z" fill="white"/>
<path d="M400.874 583.042H369.308L369.17 581.961H400.717L400.874 583.042Z" fill="white"/>
<path d="M401.876 589.804H371.253C371.076 589.45 370.919 589.096 370.781 588.743H401.699L401.758 589.096C401.798 589.332 401.837 589.568 401.876 589.804Z" fill="white"/>
<path d="M405.395 596.585H376.443C376.05 596.251 375.657 595.878 375.303 595.524H404.491C404.766 595.897 405.081 596.251 405.395 596.585Z" fill="white"/>
<path d="M430.983 275.04V308.14C429.548 304.386 418.187 304.916 405.687 309.653C394.974 313.722 386.935 319.304 385.756 323.176V276.593C385.756 262.735 393.166 250.352 404.547 243.591C419.328 246.166 430.983 259.04 430.983 275.04Z" fill="#FFCF2D"/>
<path d="M384.892 245.085C374.828 252.082 368.42 263.698 368.42 276.592V315.019H312.461L320.186 281.762C323.468 267.59 333.728 256.288 347.094 251.473L384.892 245.085Z" fill="#FFCF2D"/>
<path d="M498.07 409.562V486.71C498.07 481.462 482.64 477.216 464.4 477.216C446.159 477.216 431.378 481.462 431.378 486.71V449.738C431.378 448.008 429.963 446.593 428.234 446.593H327.912C297.74 446.593 275.431 418.505 282.252 389.12L306.467 284.789C310.32 268.14 323.804 255.463 340.648 252.593L347.095 251.492C333.73 256.308 323.469 267.61 320.187 281.781L312.462 315.039H368.422V276.592C368.422 263.698 374.849 252.062 384.893 245.084L393.738 243.591C395.566 243.276 397.355 243.139 399.143 243.139C399.379 243.139 399.595 243.139 399.831 243.139C400.047 243.139 400.264 243.158 400.46 243.158C400.5 243.158 400.539 243.158 400.578 243.158C400.735 243.158 400.912 243.178 401.07 243.178C401.089 243.178 401.129 243.178 401.148 243.178C401.246 243.178 401.345 243.198 401.423 243.198C401.6 243.217 401.758 243.217 401.934 243.237C402.131 243.256 402.347 243.276 402.544 243.296C402.74 243.315 402.917 243.335 403.114 243.355C403.153 243.355 403.192 243.374 403.251 243.374C403.448 243.394 403.664 243.433 403.861 243.453C403.88 243.453 403.9 243.453 403.9 243.453C404.116 243.492 404.332 243.512 404.549 243.551C393.168 250.313 385.758 262.696 385.758 276.553V370.998H459.545C480.812 371.037 498.07 388.275 498.07 409.562Z" fill="#FE5244"/>
<path fill-rule="evenodd" clip-rule="evenodd" d="M388.634 242.507C389.58 243.867 389.244 245.737 387.883 246.683C378.493 253.212 371.402 264.833 371.402 276.592V318.019H308.666L317.245 281.085C317.245 281.084 317.245 281.084 317.245 281.083C320.731 266.036 330.764 253.633 345.215 248.434C346.774 247.873 348.493 248.682 349.053 250.241C349.614 251.8 348.805 253.518 347.246 254.079C334.927 258.511 326.169 269.143 323.09 282.439L316.219 312.019H365.402V276.592C365.402 262.564 373.721 249.222 384.458 241.757C385.818 240.811 387.688 241.147 388.634 242.507Z" fill="white"/>
<path fill-rule="evenodd" clip-rule="evenodd" d="M442.953 407.226C443.375 407.582 443.428 408.213 443.071 408.635C436.168 416.808 432.379 427.173 432.379 437.886C432.379 438.438 431.931 438.886 431.379 438.886C430.827 438.886 430.379 438.438 430.379 437.886C430.379 426.702 434.334 415.879 441.543 407.344C441.9 406.922 442.531 406.869 442.953 407.226Z" fill="white"/>
<path d="M349.63 433.974C349.532 433.974 349.434 433.954 349.355 433.896L346.761 432.48C346.466 432.323 346.368 431.969 346.525 431.674C346.682 431.38 347.036 431.281 347.331 431.439L349.925 432.854C350.22 433.011 350.318 433.365 350.161 433.66C350.043 433.856 349.847 433.974 349.63 433.974ZM352.225 433.306C352.009 433.306 351.812 433.188 351.714 432.991C351.557 432.697 351.655 432.343 351.95 432.185L354.544 430.77C354.839 430.613 355.193 430.731 355.35 431.006C355.507 431.301 355.409 431.655 355.114 431.812L352.52 433.227C352.422 433.267 352.323 433.306 352.225 433.306ZM344.441 431.163C344.343 431.163 344.245 431.144 344.166 431.085L341.572 429.67C341.277 429.512 341.179 429.159 341.336 428.864C341.493 428.569 341.847 428.471 342.142 428.628L344.736 430.043C345.031 430.2 345.129 430.554 344.972 430.849C344.854 431.045 344.658 431.163 344.441 431.163ZM357.394 430.475C357.178 430.475 356.982 430.358 356.883 430.161C356.726 429.866 356.824 429.512 357.119 429.355L359.714 427.94C360.166 427.704 360.579 427.429 360.991 427.134C361.247 426.937 361.62 426.996 361.817 427.252C362.013 427.507 361.954 427.881 361.699 428.077C361.247 428.412 360.775 428.706 360.284 428.982L357.689 430.397C357.591 430.456 357.493 430.475 357.394 430.475ZM339.311 428.254C339.193 428.254 339.075 428.215 338.957 428.136C338.132 427.527 337.365 426.82 336.717 426.014C336.501 425.758 336.54 425.385 336.795 425.188C337.051 424.972 337.424 425.011 337.621 425.267C338.211 425.994 338.899 426.623 339.645 427.173C339.901 427.37 339.96 427.743 339.783 427.999C339.685 428.176 339.508 428.254 339.311 428.254ZM363.468 426.191C363.33 426.191 363.212 426.151 363.094 426.053C362.839 425.856 362.8 425.483 363.016 425.227C363.606 424.5 364.097 423.714 364.49 422.849C364.628 422.554 364.981 422.417 365.276 422.554C365.571 422.692 365.709 423.046 365.571 423.34C365.139 424.284 364.588 425.168 363.94 425.955C363.802 426.112 363.645 426.191 363.468 426.191ZM335.616 423.753C335.4 423.753 335.184 423.635 335.085 423.419C334.653 422.476 334.338 421.493 334.142 420.471C334.083 420.156 334.299 419.842 334.614 419.783C334.928 419.724 335.243 419.94 335.302 420.255C335.478 421.178 335.754 422.063 336.147 422.908C336.284 423.203 336.147 423.557 335.852 423.694C335.773 423.734 335.695 423.753 335.616 423.753ZM365.905 420.884C365.866 420.884 365.827 420.884 365.807 420.884C365.492 420.825 365.276 420.51 365.335 420.196C365.453 419.547 365.512 418.898 365.512 418.25V417.365C365.512 417.031 365.768 416.776 366.102 416.776C366.436 416.776 366.691 417.031 366.691 417.365V418.25C366.691 418.977 366.632 419.704 366.495 420.412C366.436 420.687 366.18 420.884 365.905 420.884ZM334.535 418.014C334.201 418.014 333.945 417.758 333.945 417.424V414.476C333.945 414.142 334.201 413.886 334.535 413.886C334.869 413.886 335.125 414.142 335.125 414.476V417.424C335.125 417.739 334.849 418.014 334.535 418.014ZM366.082 415.007C365.748 415.007 365.492 414.751 365.492 414.417V411.469C365.492 411.134 365.748 410.879 366.082 410.879C366.416 410.879 366.672 411.134 366.672 411.469V414.417C366.672 414.751 366.416 415.007 366.082 415.007ZM334.535 412.117C334.201 412.117 333.945 411.862 333.945 411.528V408.579C333.945 408.245 334.201 407.99 334.535 407.99C334.869 407.99 335.125 408.245 335.125 408.579V411.528C335.125 411.842 334.849 412.117 334.535 412.117ZM366.082 409.11C365.748 409.11 365.492 408.854 365.492 408.52V405.572C365.492 405.238 365.748 404.982 366.082 404.982C366.416 404.982 366.672 405.238 366.672 405.572V408.52C366.672 408.854 366.416 409.11 366.082 409.11ZM334.535 406.221C334.201 406.221 333.945 405.965 333.945 405.631V402.683C333.945 402.348 334.201 402.093 334.535 402.093C334.869 402.093 335.125 402.348 335.125 402.683V405.631C335.125 405.945 334.849 406.221 334.535 406.221ZM366.082 403.213C365.748 403.213 365.492 402.958 365.492 402.624V399.675C365.492 399.341 365.748 399.086 366.082 399.086C366.416 399.086 366.672 399.341 366.672 399.675V402.624C366.672 402.958 366.416 403.213 366.082 403.213ZM334.535 400.324C334.201 400.324 333.945 400.068 333.945 399.734V397.199H335.537C335.872 397.199 336.127 397.454 336.127 397.788C336.127 398.122 335.872 398.378 335.537 398.378H335.125V399.734C335.125 400.049 334.849 400.324 334.535 400.324ZM365.021 398.378H362.072C361.738 398.378 361.483 398.122 361.483 397.788C361.483 397.454 361.738 397.199 362.072 397.199H365.021C365.355 397.199 365.61 397.454 365.61 397.788C365.61 398.122 365.355 398.378 365.021 398.378ZM359.124 398.378H356.176C355.842 398.378 355.586 398.122 355.586 397.788C355.586 397.454 355.842 397.199 356.176 397.199H359.124C359.458 397.199 359.714 397.454 359.714 397.788C359.714 398.122 359.458 398.378 359.124 398.378ZM353.227 398.378H350.279C349.945 398.378 349.689 398.122 349.689 397.788C349.689 397.454 349.945 397.199 350.279 397.199H353.227C353.562 397.199 353.817 397.454 353.817 397.788C353.817 398.122 353.562 398.378 353.227 398.378ZM347.331 398.378H344.382C344.048 398.378 343.793 398.122 343.793 397.788C343.793 397.454 344.048 397.199 344.382 397.199H347.331C347.665 397.199 347.92 397.454 347.92 397.788C347.92 398.122 347.665 398.378 347.331 398.378ZM341.434 398.378H338.486C338.152 398.378 337.896 398.122 337.896 397.788C337.896 397.454 338.152 397.199 338.486 397.199H341.434C341.768 397.199 342.024 397.454 342.024 397.788C342.024 398.122 341.768 398.378 341.434 398.378Z" fill="white"/>
<path d="M294.007 430.711C293.79 430.711 293.594 430.593 293.496 430.397C293.338 430.102 293.437 429.748 293.731 429.591L296.129 428.274C296.188 428.235 296.247 428.215 296.306 428.176C296.581 428.018 296.955 428.117 297.112 428.392C297.269 428.667 297.171 429.041 296.896 429.198C296.837 429.237 296.778 429.276 296.699 429.296L294.301 430.613C294.203 430.692 294.105 430.711 294.007 430.711ZM298.979 427.566C298.822 427.566 298.665 427.507 298.547 427.37C298.331 427.134 298.351 426.761 298.586 426.544C299.274 425.915 299.884 425.188 300.414 424.422C300.591 424.146 300.965 424.087 301.24 424.264C301.515 424.441 301.574 424.815 301.397 425.09C300.827 425.935 300.139 426.721 299.392 427.429C299.255 427.527 299.117 427.566 298.979 427.566ZM302.262 422.731C302.183 422.731 302.124 422.712 302.046 422.692C301.751 422.574 301.594 422.24 301.712 421.925C302.046 421.041 302.282 420.137 302.419 419.213C302.459 418.898 302.753 418.662 303.087 418.702C303.402 418.741 303.638 419.036 303.599 419.37C303.461 420.392 303.205 421.395 302.832 422.358C302.714 422.594 302.498 422.731 302.262 422.731ZM303.107 416.952C302.773 416.952 302.517 416.697 302.517 416.363V413.414C302.517 413.08 302.773 412.825 303.107 412.825C303.441 412.825 303.697 413.08 303.697 413.414V416.363C303.697 416.677 303.441 416.952 303.107 416.952ZM303.107 411.056C302.773 411.056 302.517 410.8 302.517 410.466V407.518C302.517 407.184 302.773 406.928 303.107 406.928C303.441 406.928 303.697 407.184 303.697 407.518V410.466C303.697 410.781 303.441 411.056 303.107 411.056ZM303.107 405.159C302.773 405.159 302.517 404.904 302.517 404.569V401.621C302.517 401.287 302.773 401.031 303.107 401.031C303.441 401.031 303.697 401.287 303.697 401.621V404.569C303.697 404.884 303.441 405.159 303.107 405.159ZM303.107 399.262C302.773 399.262 302.517 399.007 302.517 398.673V398.378H301.043C300.709 398.378 300.454 398.122 300.454 397.788C300.454 397.454 300.709 397.199 301.043 397.199H303.697V398.673C303.697 398.987 303.441 399.262 303.107 399.262ZM298.095 398.378H295.147C294.813 398.378 294.557 398.122 294.557 397.788C294.557 397.454 294.813 397.199 295.147 397.199H298.095C298.429 397.199 298.685 397.454 298.685 397.788C298.685 398.122 298.409 398.378 298.095 398.378ZM292.198 398.378H289.25C288.916 398.378 288.66 398.122 288.66 397.788C288.66 397.454 288.916 397.199 289.25 397.199H292.198C292.532 397.199 292.788 397.454 292.788 397.788C292.788 398.122 292.513 398.378 292.198 398.378ZM286.302 398.378H283.353C283.019 398.378 282.764 398.122 282.764 397.788C282.764 397.454 283.019 397.199 283.353 397.199H286.302C286.636 397.199 286.891 397.454 286.891 397.788C286.891 398.122 286.616 398.378 286.302 398.378Z" fill="white"/>
<path d="M430.985 308.14C432.42 311.894 423.339 318.557 410.858 323.294C398.377 328.031 387.193 328.759 385.758 324.985C384.323 321.211 393.187 314.41 405.688 309.673C418.189 304.936 429.55 304.366 430.985 308.14Z" fill="#FE5244"/>
<path d="M437.963 430.082V432.166C437.315 432.009 436.627 431.93 435.939 431.93H433.403C429.649 431.93 426.445 429.532 425.227 426.191L432.42 425.227C435.349 424.834 437.963 427.114 437.963 430.082Z" fill="#73325A"/>
<path d="M444.607 440.598V456.598C444.607 460.332 441.58 463.359 437.845 463.359H430.317C428.45 463.359 426.759 462.612 425.541 461.374C424.322 460.155 423.556 458.465 423.556 456.598H428.45C430.062 456.598 431.359 455.3 431.359 453.689V449.502C431.359 447.89 430.062 446.593 428.45 446.593H403.428C393.659 446.593 385.738 438.672 385.738 428.903V323.196C386.918 319.323 394.957 313.722 405.669 309.673C412.981 306.901 419.919 305.565 424.696 305.682V423.262C424.696 428.058 428.587 431.95 433.383 431.95H435.919C440.715 431.93 444.607 435.802 444.607 440.598Z" fill="#A0505A"/>
<path d="M424.696 305.663V316.356C421.138 318.754 416.322 321.21 410.838 323.274C398.337 328.011 387.173 328.739 385.738 324.965V323.176C386.918 319.304 394.957 313.702 405.669 309.653C413.001 306.882 419.919 305.545 424.696 305.663Z" fill="#73325A"/>
<path d="M392.008 226.038L384.618 245.084L346.525 251.905L356.471 226.038H392.008Z" fill="#A0505A"/>
<path d="M392.008 226.038L388.018 236.338L350.24 242.234L356.471 226.038H392.008Z" fill="#73325A"/>
<path d="M414.337 187.278C414.337 189.852 409.875 192.702 404.726 195.1C397.709 198.383 389.434 200.879 389.434 200.879L383.851 211.395C391.438 215.424 394.406 222.658 395.586 227.709C396.333 230.933 396.333 233.232 396.333 233.232H342.83C342.83 233.232 328.777 187.71 362.643 176.821C383.36 170.158 414.337 181.165 414.337 187.278Z" fill="white"/>
<path fill-rule="evenodd" clip-rule="evenodd" d="M396.008 178.226C385.766 175.567 373.055 174.523 362.949 177.773C354.718 180.42 349.441 185.148 346.12 190.74C342.784 196.355 341.39 202.893 341.035 209.166C340.681 215.436 341.368 221.384 342.148 225.774C342.538 227.967 342.949 229.765 343.262 231.011C343.388 231.51 343.497 231.92 343.583 232.232H395.283C395.273 232.093 395.26 231.94 395.244 231.775C395.154 230.833 394.973 229.497 394.612 227.935C393.462 223.011 390.601 216.112 383.382 212.278L382.499 211.809L388.746 200.042L389.145 199.922L389.15 199.92L389.167 199.915L389.235 199.894C389.296 199.876 389.387 199.848 389.506 199.811C389.743 199.737 390.09 199.628 390.529 199.486C391.408 199.203 392.653 198.791 394.117 198.277C397.048 197.248 400.836 195.816 404.302 194.195L404.303 194.194C406.853 193.007 409.182 191.73 410.858 190.459C411.697 189.823 412.336 189.215 412.759 188.65C413.184 188.082 413.337 187.628 413.337 187.278C413.337 186.923 413.093 186.328 412.264 185.513C411.466 184.727 410.26 183.873 408.689 183.003C405.554 181.267 401.117 179.553 396.008 178.226ZM396.333 233.232L397.333 233.232L397.333 234.232H342.092L341.875 233.527L342.83 233.232C341.875 233.527 341.875 233.527 341.874 233.526L341.871 233.516L341.863 233.489C341.856 233.465 341.845 233.43 341.832 233.385C341.805 233.294 341.767 233.162 341.718 232.99C341.621 232.645 341.484 232.142 341.323 231.499C341 230.213 340.578 228.37 340.179 226.124C339.382 221.639 338.673 215.526 339.038 209.054C339.404 202.585 340.846 195.701 344.4 189.718C347.968 183.712 353.635 178.667 362.337 175.869M396.333 233.232C397.333 233.232 397.333 233.233 397.333 233.232L397.333 233.231L397.333 233.228L397.333 233.221L397.332 233.195C397.332 233.174 397.332 233.144 397.331 233.106C397.329 233.03 397.326 232.92 397.32 232.779C397.308 232.497 397.283 232.092 397.235 231.585C397.138 230.571 396.945 229.145 396.56 227.483L396.56 227.482C395.396 222.497 392.503 215.3 385.193 211L390.123 201.713C390.365 201.638 390.711 201.529 391.143 201.39C392.035 201.102 393.297 200.685 394.779 200.164C397.74 199.125 401.597 197.668 405.148 196.007C407.748 194.796 410.225 193.449 412.067 192.052C412.987 191.354 413.785 190.617 414.36 189.848C414.933 189.083 415.337 188.215 415.337 187.278C415.337 186.104 414.613 185.018 413.667 184.087C412.69 183.127 411.314 182.17 409.658 181.253C406.337 179.414 401.734 177.647 396.51 176.29C386.084 173.583 372.948 172.456 362.337 175.869" fill="#FFCF2D"/>
<path d="M357.69 183.307C365.039 183.307 370.996 177.349 370.996 170C370.996 162.651 365.039 156.693 357.69 156.693C350.34 156.693 344.383 162.651 344.383 170C344.383 177.349 350.34 183.307 357.69 183.307Z" fill="white"/>
<path fill-rule="evenodd" clip-rule="evenodd" d="M357.69 157.693C350.893 157.693 345.383 163.203 345.383 170C345.383 176.797 350.893 182.307 357.69 182.307C364.486 182.307 369.996 176.797 369.996 170C369.996 163.203 364.486 157.693 357.69 157.693ZM343.383 170C343.383 162.099 349.788 155.693 357.69 155.693C365.591 155.693 371.996 162.099 371.996 170C371.996 177.902 365.591 184.307 357.69 184.307C349.788 184.307 343.383 177.902 343.383 170Z" fill="#FFCF2D"/>
<path d="M395.565 227.709C394.464 222.932 391.712 216.132 384.931 212.024H383.182C381.57 212.024 380.096 211.375 379.034 210.314C377.973 209.252 377.324 207.778 377.324 206.166C377.324 202.923 379.938 200.309 383.182 200.309L390.592 200.466H390.788C390.926 200.427 391.063 200.368 391.221 200.329C393.226 199.896 399.574 198.363 404.842 195.729L405.451 199.365L407.417 211.021C408.753 219.021 403.27 226.392 395.565 227.709Z" fill="#A0505A"/>
<path d="M405.432 199.346C398.985 201.96 390.572 200.447 390.572 200.447C390.572 200.447 398.493 198.874 404.823 195.71L405.432 199.346Z" fill="#73325A"/>
<path fill-rule="evenodd" clip-rule="evenodd" d="M382.691 203.238C382.691 202.685 383.139 202.238 383.691 202.238C386.484 202.238 388.74 204.494 388.74 207.287C388.74 207.839 388.293 208.287 387.74 208.287C387.188 208.287 386.74 207.839 386.74 207.287C386.74 205.598 385.38 204.238 383.691 204.238C383.139 204.238 382.691 203.79 382.691 203.238Z" fill="#73325A"/>
<path fill-rule="evenodd" clip-rule="evenodd" d="M429.888 646.689L407.068 456.777L410.047 456.419L432.867 646.331L429.888 646.689Z" fill="#66B0F0"/>
<path fill-rule="evenodd" clip-rule="evenodd" d="M285.342 646.331L308.142 456.419L311.121 456.777L288.32 646.688L285.342 646.331Z" fill="#66B0F0"/>
<path fill-rule="evenodd" clip-rule="evenodd" d="M423.536 582.792H294.654V579.792H423.536V582.792Z" fill="#66B0F0"/>
<path d="M289.8 456.598H428.391C430.042 456.598 431.379 455.261 431.379 453.61V449.561C431.379 447.91 430.042 446.573 428.391 446.573H289.8C288.149 446.573 286.812 447.91 286.812 449.561V453.61C286.832 455.261 288.169 456.598 289.8 456.598Z" fill="white"/>
<path fill-rule="evenodd" clip-rule="evenodd" d="M284.812 449.561C284.812 446.805 287.044 444.573 289.8 444.573H428.391C431.147 444.573 433.379 446.805 433.379 449.561V453.61C433.379 456.366 431.147 458.598 428.391 458.598H289.8C287.051 458.598 284.845 456.358 284.813 453.634L284.812 453.622V449.561ZM289.8 448.573C289.254 448.573 288.812 449.014 288.812 449.561V453.595C288.824 454.169 289.289 454.598 289.8 454.598H428.391C428.938 454.598 429.379 454.156 429.379 453.61V449.561C429.379 449.014 428.938 448.573 428.391 448.573H289.8Z" fill="#FFCF2D"/>
</g>
</svg>
